<?xml version="1.0" encoding="UTF-8" standalone="no"?>
<!-- Created with Inkscape (http://www.inkscape.org/) -->

<svg
   xmlns:dc="http://purl.org/dc/elements/1.1/"
   xmlns:cc="http://creativecommons.org/ns#"
   xmlns:rdf="http://www.w3.org/1999/02/22-rdf-syntax-ns#"
   xmlns:svg="http://www.w3.org/2000/svg"
   xmlns="http://www.w3.org/2000/svg"
   xmlns:sodipodi="http://sodipodi.sourceforge.net/DTD/sodipodi-0.dtd"
   xmlns:inkscape="http://www.inkscape.org/namespaces/inkscape"
   width="524.40942"
   height="744.09448"
   id="svg3589"
   version="1.1"
   inkscape:version="0.48.4 r9939"
   sodipodi:docname="manifiesto_telecomunista_a5.svg">
  <defs
     id="defs3591" />
  <sodipodi:namedview
     id="base"
     pagecolor="#ffffff"
     bordercolor="#666666"
     borderopacity="1.0"
     inkscape:pageopacity="0.0"
     inkscape:pageshadow="2"
     inkscape:zoom="0.7"
     inkscape:cx="90.527023"
     inkscape:cy="325.54601"
     inkscape:document-units="px"
     inkscape:current-layer="g4502"
     showgrid="false"
     units="mm"
     inkscape:window-width="1360"
     inkscape:window-height="749"
     inkscape:window-x="0"
     inkscape:window-y="19"
     inkscape:window-maximized="0" />
  <metadata
     id="metadata3594">
    <rdf:RDF>
      <cc:Work
         rdf:about="">
        <dc:format>image/svg+xml</dc:format>
        <dc:type
           rdf:resource="http://purl.org/dc/dcmitype/StillImage" />
        <dc:title></dc:title>
      </cc:Work>
    </rdf:RDF>
  </metadata>
  <g
     inkscape:label="Layer 1"
     inkscape:groupmode="layer"
     id="layer1"
     transform="translate(0,-308.26769)">
    <g
       id="g4502"
       transform="matrix(0.70429282,0,0,0.70429282,-498.43156,176.59109)">
      <rect
         inkscape:export-filename="/home/moteado/Desarrollo/hacklab/endefensadelsl/tapa_3/tapa3.png"
         inkscape:export-ydpi="36.169998"
         inkscape:export-xdpi="36.169998"
         y="218.02158"
         x="740.46051"
         height="994.39551"
         width="687.03693"
         id="rect2987-2"
         style="opacity:0.9;fill:#ff0000;fill-opacity:1;stroke:none" />
      <rect
         y="843.44318"
         x="707.70502"
         height="164.84395"
         width="744.59003"
         id="rect2987"
         style="fill:#ffffff;fill-opacity:1;stroke:none" />
      <g
         id="text2989"
         style="font-size:40px;font-style:normal;font-weight:normal;line-height:125%;letter-spacing:0px;word-spacing:0px;fill:#000000;fill-opacity:1;stroke:none;font-family:Sans"
         transform="translate(707.91663,185.36679)">
        <path
           id="path3163"
           style="font-size:105px;font-variant:normal;font-weight:bold;font-stretch:normal;text-align:center;text-anchor:middle;font-family:Kremlin;-inkscape-font-specification:Kremlin Bold"
           d="m 55.977631,746.17896 17.739257,0 0,-41.11817 11.330567,11.33057 4.255371,0 11.330564,-11.33057 0,41.11817 17.73926,0 0,-77.26319 -11.33057,0 -19.687496,19.63623 -19.841309,-19.63623 -11.535644,0 0,77.26319"
           inkscape:connector-curvature="0" />
        <path
           id="path3165"
           style="font-size:105px;font-variant:normal;font-weight:bold;font-stretch:normal;text-align:center;text-anchor:middle;font-family:Kremlin;-inkscape-font-specification:Kremlin Bold"
           d="m 128.93417,746.17896 17.73926,0 0,-14.86817 26.91651,0 0,14.86817 17.73925,0 0,-77.26319 -62.39502,0 0,77.26319 m 44.65577,-59.52393 0,26.9165 -26.91651,0 0,-26.9165 26.91651,0"
           inkscape:connector-curvature="0" />
        <path
           id="path3167"
           style="font-size:105px;font-variant:normal;font-weight:bold;font-stretch:normal;text-align:center;text-anchor:middle;font-family:Kremlin;-inkscape-font-specification:Kremlin Bold"
           d="m 201.68564,746.17896 17.73926,0 0,-41.98975 26.9165,27.12158 0,14.86817 17.73926,0 0,-77.26319 -17.73926,0 0,34.91455 -26.9165,-27.12158 0,-7.79297 -17.73926,0 0,77.26319"
           inkscape:connector-curvature="0" />
        <path
           id="path3169"
           style="font-size:105px;font-variant:normal;font-weight:bold;font-stretch:normal;text-align:center;text-anchor:middle;font-family:Kremlin;-inkscape-font-specification:Kremlin Bold"
           d="m 274.33456,746.28149 17.73926,0 0,-77.36572 -17.73926,0 0,77.36572"
           inkscape:connector-curvature="0" />
        <path
           id="path3171"
           style="font-size:105px;font-variant:normal;font-weight:bold;font-stretch:normal;text-align:center;text-anchor:middle;font-family:Kremlin;-inkscape-font-specification:Kremlin Bold"
           d="m 303.66074,746.17896 17.73925,0 0,-29.7876 29.7876,0 0,-17.68799 -29.7876,0 0,-12.04834 44.65577,0 0,-17.73926 -62.39502,0 0,77.26319"
           inkscape:connector-curvature="0" />
        <path
           id="path3173"
           style="font-size:105px;font-variant:normal;font-weight:bold;font-stretch:normal;text-align:center;text-anchor:middle;font-family:Kremlin;-inkscape-font-specification:Kremlin Bold"
           d="m 376.46347,746.28149 17.73926,0 0,-77.36572 -17.73926,0 0,77.36572"
           inkscape:connector-curvature="0" />
        <path
           id="path3175"
           style="font-size:105px;font-variant:normal;font-weight:bold;font-stretch:normal;text-align:center;text-anchor:middle;font-family:Kremlin;-inkscape-font-specification:Kremlin Bold"
           d="m 405.78964,746.17896 62.39502,0 0,-17.73926 -44.04053,0 0.10254,-12.04834 29.06983,0 0,-17.68799 -29.7876,0 0,-12.04834 44.65576,0 0,-17.73926 -62.39502,0 0,77.26319"
           inkscape:connector-curvature="0" />
        <path
           id="path3177"
           style="font-size:105px;font-variant:normal;font-weight:bold;font-stretch:normal;text-align:center;text-anchor:middle;font-family:Kremlin;-inkscape-font-specification:Kremlin Bold"
           d="m 478.64365,716.39136 44.65576,0 0,12.09961 -44.65576,-0.0513 0,17.73926 62.39502,0 0,-47.47559 -44.65577,0 0,-12.04834 44.65577,0 -0.10254,-17.73926 -62.29248,0 0,47.47559"
           inkscape:connector-curvature="0" />
        <path
           id="path3179"
           style="font-size:105px;font-variant:normal;font-weight:bold;font-stretch:normal;text-align:center;text-anchor:middle;font-family:Kremlin;-inkscape-font-specification:Kremlin Bold"
           d="m 551.2413,686.65503 22.7124,0 0,59.52393 17.68799,0 0,-59.52393 21.99463,0 0,-17.73926 -62.39502,0 0,17.73926"
           inkscape:connector-curvature="0" />
        <path
           id="path3181"
           style="font-size:105px;font-variant:normal;font-weight:bold;font-stretch:normal;text-align:center;text-anchor:middle;font-family:Kremlin;-inkscape-font-specification:Kremlin Bold"
           d="m 624.24911,746.17896 62.39502,0 0,-77.26319 -62.39502,0 0,77.26319 m 44.65577,-59.52393 0,41.78467 -26.86524,0 -0.0513,-41.78467 26.91651,0"
           inkscape:connector-curvature="0" />
      </g>
      <g
         id="text2989-5"
         style="font-size:40px;font-style:normal;font-weight:normal;line-height:125%;letter-spacing:0px;word-spacing:0px;fill:#000000;fill-opacity:1;stroke:none;font-family:Sans"
         transform="translate(707.91663,185.36679)">
        <path
           id="path3136"
           style="font-size:73px;font-variant:normal;font-weight:bold;font-stretch:normal;text-align:center;text-anchor:middle;font-family:KyrillaSansSerif;-inkscape-font-specification:KyrillaSansSerif Bold"
           d="m 97.82261,769.34988 0,-9.636 -42.705,0 0,9.636 15.622,0 0,42.486 11.461,0 0,-42.486 15.622,0"
           inkscape:connector-curvature="0" />
        <path
           id="path3138"
           style="font-size:73px;font-variant:normal;font-weight:bold;font-stretch:normal;text-align:center;text-anchor:middle;font-family:KyrillaSansSerif;-inkscape-font-specification:KyrillaSansSerif Bold"
           d="m 148.43214,775.70088 c -0.43805,-2.96863 -1.31405,-5.54796 -2.628,-7.738 -1.26538,-2.23862 -2.89571,-4.08796 -4.891,-5.548 -1.94671,-1.45995 -4.18537,-2.53062 -6.716,-3.212 -2.48203,-0.72995 -5.1587,-1.09495 -8.03,-1.095 -3.94202,5e-5 -7.42169,0.73005 -10.439,2.19 -2.96868,1.46005 -5.47501,3.43104 -7.519,5.913 -1.99534,2.48204 -3.504,5.3777 -4.526,8.687 -1.022,3.2607 -1.533,6.71603 -1.533,10.366 0,3.79602 0.46233,7.39735 1.387,10.804 0.97333,3.35801 2.43333,6.30234 4.38,8.833 1.99532,2.53067 4.47732,4.55033 7.446,6.059 3.01731,1.46 6.56998,2.19 10.658,2.19 2.8713,0 5.54797,-0.41367 8.03,-1.241 2.48196,-0.82734 4.69629,-2.01967 6.643,-3.577 1.94662,-1.606 3.57696,-3.52833 4.891,-5.767 1.31395,-2.23866 2.23862,-4.79366 2.774,-7.665 l -10.95,0 c -0.82737,2.62801 -2.11704,4.74501 -3.869,6.351 -1.70337,1.60601 -4.01503,2.409 -6.935,2.409 -2.04402,0 -3.89336,-0.34066 -5.548,-1.022 -1.60602,-0.68133 -2.96868,-1.63033 -4.088,-2.847 -1.11935,-1.21666 -1.97102,-2.65232 -2.555,-4.307 -0.58401,-1.70332 -0.87601,-3.55265 -0.876,-5.548 l 23.068,0 0,-8.614 -22.922,0 c -1e-5,-1.89797 0.34065,-3.6743 1.022,-5.329 0.68132,-1.65463 1.60598,-3.0903 2.774,-4.307 1.21665,-1.2653 2.62798,-2.26296 4.234,-2.993 1.65464,-0.72996 3.43097,-1.09496 5.329,-1.095 2.67664,4e-5 4.89097,0.73004 6.643,2.19 1.80063,1.41137 3.06596,3.38237 3.796,5.913 l 10.95,0"
           inkscape:connector-curvature="0" />
        <path
           id="path3140"
           style="font-size:73px;font-variant:normal;font-weight:bold;font-stretch:normal;text-align:center;text-anchor:middle;font-family:KyrillaSansSerif;-inkscape-font-specification:KyrillaSansSerif Bold"
           d="m 193.59405,811.83588 0,-9.636 -25.404,0 0,-42.486 -11.461,0 0,52.122 36.865,0"
           inkscape:connector-curvature="0" />
        <path
           id="path3142"
           style="font-size:73px;font-variant:normal;font-weight:bold;font-stretch:normal;text-align:center;text-anchor:middle;font-family:KyrillaSansSerif;-inkscape-font-specification:KyrillaSansSerif Bold"
           d="m 244.38722,775.70088 c -0.43805,-2.96863 -1.31405,-5.54796 -2.628,-7.738 -1.26538,-2.23862 -2.89571,-4.08796 -4.891,-5.548 -1.94671,-1.45995 -4.18537,-2.53062 -6.716,-3.212 -2.48203,-0.72995 -5.1587,-1.09495 -8.03,-1.095 -3.94202,5e-5 -7.42169,0.73005 -10.439,2.19 -2.96868,1.46005 -5.47501,3.43104 -7.519,5.913 -1.99534,2.48204 -3.50401,5.3777 -4.526,8.687 -1.022,3.2607 -1.533,6.71603 -1.533,10.366 0,3.79602 0.46233,7.39735 1.387,10.804 0.97333,3.35801 2.43333,6.30234 4.38,8.833 1.99532,2.53067 4.47732,4.55033 7.446,6.059 3.01731,1.46 6.56998,2.19 10.658,2.19 2.8713,0 5.54797,-0.41367 8.03,-1.241 2.48196,-0.82734 4.69629,-2.01967 6.643,-3.577 1.94662,-1.606 3.57695,-3.52833 4.891,-5.767 1.31395,-2.23866 2.23862,-4.79366 2.774,-7.665 l -10.95,0 c -0.82737,2.62801 -2.11704,4.74501 -3.869,6.351 -1.70337,1.60601 -4.01503,2.409 -6.935,2.409 -2.04403,0 -3.89336,-0.34066 -5.548,-1.022 -1.60602,-0.68133 -2.96869,-1.63033 -4.088,-2.847 -1.11935,-1.21666 -1.97102,-2.65232 -2.555,-4.307 -0.58402,-1.70332 -0.87602,-3.55265 -0.876,-5.548 l 23.068,0 0,-8.614 -22.922,0 c -2e-5,-1.89797 0.34065,-3.6743 1.022,-5.329 0.68132,-1.65463 1.60598,-3.0903 2.774,-4.307 1.21665,-1.2653 2.62798,-2.26296 4.234,-2.993 1.65464,-0.72996 3.43097,-1.09496 5.329,-1.095 2.67663,4e-5 4.89097,0.73004 6.643,2.19 1.80063,1.41137 3.06596,3.38237 3.796,5.913 l 10.95,0"
           inkscape:connector-curvature="0" />
        <path
           id="path3144"
           style="font-size:73px;font-variant:normal;font-weight:bold;font-stretch:normal;text-align:center;text-anchor:middle;font-family:KyrillaSansSerif;-inkscape-font-specification:KyrillaSansSerif Bold"
           d="m 298.96613,791.76088 -11.096,0 c -0.19471,1.65468 -0.58404,3.21201 -1.168,4.672 -0.58404,1.41134 -1.38704,2.65234 -2.409,3.723 -0.97337,1.02201 -2.14137,1.82501 -3.504,2.409 -1.3627,0.58401 -2.94437,0.876 -4.745,0.876 -2.5307,0 -4.69636,-0.48666 -6.497,-1.46 -1.75202,-0.97333 -3.21202,-2.26299 -4.38,-3.869 -1.11935,-1.65465 -1.94669,-3.52832 -2.482,-5.621 -0.53535,-2.09265 -0.80302,-4.25831 -0.803,-6.497 -2e-5,-2.23864 0.24331,-4.42864 0.73,-6.57 0.53531,-2.18997 1.36265,-4.1123 2.482,-5.767 1.11931,-1.65463 2.57931,-2.99296 4.38,-4.015 1.80064,-1.02196 3.99064,-1.53296 6.57,-1.533 1.31397,4e-5 2.60363,0.21904 3.869,0.657 1.31396,0.43804 2.48196,1.07071 3.504,1.898 1.07063,0.7787 1.94662,1.7277 2.628,2.847 0.72996,1.11937 1.19229,2.36037 1.387,3.723 l 11.096,0 c -0.34072,-2.96863 -1.16805,-5.62096 -2.482,-7.957 -1.26539,-2.33596 -2.92005,-4.30696 -4.964,-5.913 -1.99538,-1.60595 -4.28271,-2.82262 -6.862,-3.65 -2.53071,-0.82728 -5.25604,-1.24095 -8.176,-1.241 -4.03936,5e-5 -7.64069,0.70572 -10.804,2.117 -3.16335,1.41138 -5.84002,3.35804 -8.03,5.84 -2.19001,2.48204 -3.86901,5.40204 -5.037,8.76 -1.16801,3.35803 -1.75201,6.95936 -1.752,10.804 -1e-5,3.84469 0.58399,7.42168 1.752,10.731 1.21666,3.26067 2.91999,6.10767 5.11,8.541 2.23865,2.43333 4.93965,4.35567 8.103,5.767 3.16331,1.36266 6.71597,2.044 10.658,2.044 3.21196,0 6.15629,-0.511 8.833,-1.533 2.72529,-1.022 5.06129,-2.45767 7.008,-4.307 1.99528,-1.898 3.60128,-4.13666 4.818,-6.716 1.21661,-2.62799 1.97094,-5.54799 2.263,-8.76"
           inkscape:connector-curvature="0" />
        <path
           id="path3146"
           style="font-size:73px;font-variant:normal;font-weight:bold;font-stretch:normal;text-align:center;text-anchor:middle;font-family:KyrillaSansSerif;-inkscape-font-specification:KyrillaSansSerif Bold"
           d="m 355.70423,785.99388 c -5e-5,-3.84464 -0.58405,-7.44597 -1.752,-10.804 -1.16805,-3.35796 -2.84704,-6.27796 -5.037,-8.76 -2.19004,-2.48196 -4.8667,-4.42862 -8.03,-5.84 -3.16336,-1.41128 -6.76469,-2.11695 -10.804,-2.117 -4.03935,5e-5 -7.64068,0.70572 -10.804,2.117 -3.16334,1.41138 -5.84001,3.35804 -8.03,5.84 -2.19,2.48204 -3.869,5.40204 -5.037,8.76 -1.168,3.35803 -1.752,6.95936 -1.752,10.804 0,3.84469 0.584,7.42168 1.752,10.731 1.21667,3.26067 2.92,6.10767 5.11,8.541 2.23866,2.43333 4.93966,4.35567 8.103,5.767 3.16332,1.36266 6.71598,2.044 10.658,2.044 3.94197,0 7.49464,-0.68134 10.658,-2.044 3.1633,-1.41133 5.83996,-3.33367 8.03,-5.767 2.23862,-2.43333 3.94195,-5.28033 5.11,-8.541 1.21662,-3.30932 1.82495,-6.88631 1.825,-10.731 m -11.461,0 c -4e-5,2.23869 -0.2677,4.40435 -0.803,6.497 -0.53537,2.09268 -1.38704,3.96635 -2.555,5.621 -1.11937,1.60601 -2.57937,2.89567 -4.38,3.869 -1.75203,0.97334 -3.89336,1.46 -6.424,1.46 -2.53069,0 -4.69635,-0.48666 -6.497,-1.46 -1.75202,-0.97333 -3.21201,-2.26299 -4.38,-3.869 -1.11935,-1.65465 -1.94668,-3.52832 -2.482,-5.621 -0.53534,-2.09265 -0.80301,-4.25831 -0.803,-6.497 -1e-5,-2.23864 0.24332,-4.42864 0.73,-6.57 0.53532,-2.18997 1.36265,-4.1123 2.482,-5.767 1.11932,-1.65463 2.57932,-2.99296 4.38,-4.015 1.80065,-1.02196 3.99065,-1.53296 6.57,-1.533 2.57931,4e-5 4.7693,0.51104 6.57,1.533 1.80063,1.02204 3.26063,2.36037 4.38,4.015 1.1193,1.6547 1.9223,3.57703 2.409,5.767 0.5353,2.14136 0.80296,4.33136 0.803,6.57"
           inkscape:connector-curvature="0" />
        <path
           id="path3148"
           style="font-size:73px;font-variant:normal;font-weight:bold;font-stretch:normal;text-align:center;text-anchor:middle;font-family:KyrillaSansSerif;-inkscape-font-specification:KyrillaSansSerif Bold"
           d="m 419.46175,811.83588 0,-52.122 -16.133,0 -11.534,35.843 -0.146,0 -12.191,-35.843 -16.133,0 0,52.122 10.731,0 0,-36.573 0.146,0 12.775,36.573 8.833,0 12.775,-36.938 0.146,0 0,36.938 10.731,0"
           inkscape:connector-curvature="0" />
        <path
           id="path3150"
           style="font-size:73px;font-variant:normal;font-weight:bold;font-stretch:normal;text-align:center;text-anchor:middle;font-family:KyrillaSansSerif;-inkscape-font-specification:KyrillaSansSerif Bold"
           d="m 473.719,792.12588 0,-32.412 -11.461,0 0,32.412 c -4e-5,3.89335 -0.80304,6.76468 -2.409,8.614 -1.55737,1.80067 -4.3557,2.701 -8.395,2.701 -3.94202,0 -6.71602,-0.94899 -8.322,-2.847 -1.60602,-1.89799 -2.40902,-4.72065 -2.409,-8.468 l 0,-32.412 -11.461,0 0,32.412 c 0,7.15401 1.97099,12.43434 5.913,15.841 3.94199,3.40666 9.36831,5.11 16.279,5.11 3.40664,0 6.47263,-0.41367 9.198,-1.241 2.77396,-0.876 5.13429,-2.16567 7.081,-3.869 1.94662,-1.752 3.43095,-3.942 4.453,-6.57 1.02195,-2.62799 1.53295,-5.71832 1.533,-9.271"
           inkscape:connector-curvature="0" />
        <path
           id="path3152"
           style="font-size:73px;font-variant:normal;font-weight:bold;font-stretch:normal;text-align:center;text-anchor:middle;font-family:KyrillaSansSerif;-inkscape-font-specification:KyrillaSansSerif Bold"
           d="m 526.21969,811.83588 0,-52.414 -11.096,0 -20.732,35.697 -0.146,0 0,-35.697 -10.512,0 0,52.414 11.096,0 20.732,-35.478 0.146,0 0,35.478 10.512,0"
           inkscape:connector-curvature="0" />
        <path
           id="path3154"
           style="font-size:73px;font-variant:normal;font-weight:bold;font-stretch:normal;text-align:center;text-anchor:middle;font-family:KyrillaSansSerif;-inkscape-font-specification:KyrillaSansSerif Bold"
           d="m 547.87559,811.83588 0,-52.122 -11.461,0 0,52.122 11.461,0"
           inkscape:connector-curvature="0" />
        <path
           id="path3156"
           style="font-size:73px;font-variant:normal;font-weight:bold;font-stretch:normal;text-align:center;text-anchor:middle;font-family:KyrillaSansSerif;-inkscape-font-specification:KyrillaSansSerif Bold"
           d="m 598.38931,796.35988 c -4e-5,-2.43332 -0.43804,-4.50165 -1.314,-6.205 -0.82737,-1.70331 -1.97104,-3.13898 -3.431,-4.307 -1.41137,-1.16798 -3.0417,-2.09264 -4.891,-2.774 -1.84936,-0.72997 -3.79603,-1.36264 -5.84,-1.898 -0.73003,-0.19464 -1.80069,-0.43797 -3.212,-0.73 -1.41136,-0.34064 -2.89569,-0.72997 -4.453,-1.168 -1.50868,-0.43797 -2.92002,-0.92464 -4.234,-1.46 -1.31401,-0.5353 -2.21435,-1.07064 -2.701,-1.606 -0.38935,-0.3893 -0.65701,-0.8273 -0.803,-1.314 -0.0974,-0.5353 -0.14601,-1.07063 -0.146,-1.606 -1e-5,-1.07063 0.21899,-1.97096 0.657,-2.701 0.48665,-0.77863 1.09499,-1.38696 1.825,-1.825 0.77865,-0.48663 1.63032,-0.82729 2.555,-1.022 0.97332,-0.24329 1.92231,-0.36496 2.847,-0.365 1.36265,4e-5 2.65231,0.12171 3.869,0.365 1.21664,0.24337 2.28731,0.65704 3.212,1.241 0.92464,0.58404 1.65464,1.38704 2.19,2.409 0.58397,1.02204 0.92464,2.3117 1.022,3.869 l 11.096,0 c -4e-5,-3.0173 -0.58404,-5.59663 -1.752,-7.738 -1.16804,-2.14129 -2.72537,-3.86896 -4.672,-5.183 -1.9467,-1.36262 -4.18536,-2.33595 -6.716,-2.92 -2.48203,-0.63262 -5.06136,-0.94895 -7.738,-0.949 -2.38468,5e-5 -4.74502,0.34072 -7.081,1.022 -2.28734,0.63271 -4.35568,1.60605 -6.205,2.92 -1.84934,1.31404 -3.358,2.96871 -4.526,4.964 -1.11933,1.94671 -1.679,4.23404 -1.679,6.862 0,2.43336 0.438,4.47736 1.314,6.132 0.92466,1.65469 2.09266,3.04169 3.504,4.161 1.45999,1.11936 3.11466,2.01969 4.964,2.701 1.89799,0.68135 3.79599,1.28969 5.694,1.825 1.94665,0.48669 3.84465,0.94902 5.694,1.387 1.89798,0.43802 3.55264,0.97335 4.964,1.606 1.45997,0.58402 2.62797,1.31401 3.504,2.19 0.92464,0.87601 1.38697,2.01968 1.387,3.431 -3e-5,1.31401 -0.3407,2.40901 -1.022,3.285 -0.6327,0.82734 -1.46003,1.48434 -2.482,1.971 -1.02203,0.438 -2.14136,0.75434 -3.358,0.949 -1.16802,0.19467 -2.26302,0.292 -3.285,0.292 -1.55735,0 -3.04169,-0.17033 -4.453,-0.511 -1.36268,-0.38933 -2.57935,-0.97333 -3.65,-1.752 -1.02201,-0.77866 -1.84935,-1.77633 -2.482,-2.993 -0.63268,-1.21666 -0.94901,-2.67665 -0.949,-4.38 l -11.096,0 c -0.0487,3.21201 0.53533,5.98601 1.752,8.322 1.26533,2.336 2.92,4.25833 4.964,5.767 2.04399,1.50866 4.40432,2.628 7.081,3.358 2.72532,0.73 5.52365,1.095 8.395,1.095 2.62798,0 5.23164,-0.31634 7.811,-0.949 2.62797,-0.584 4.96397,-1.533 7.008,-2.847 2.04396,-1.314 3.69863,-3.01733 4.964,-5.11 1.26529,-2.14133 1.89796,-4.74499 1.898,-7.811"
           inkscape:connector-curvature="0" />
        <path
           id="path3158"
           style="font-size:73px;font-variant:normal;font-weight:bold;font-stretch:normal;text-align:center;text-anchor:middle;font-family:KyrillaSansSerif;-inkscape-font-specification:KyrillaSansSerif Bold"
           d="m 643.75425,769.34988 0,-9.636 -42.705,0 0,9.636 15.622,0 0,42.486 11.461,0 0,-42.486 15.622,0"
           inkscape:connector-curvature="0" />
        <path
           id="path3160"
           style="font-size:73px;font-variant:normal;font-weight:bold;font-stretch:normal;text-align:center;text-anchor:middle;font-family:KyrillaSansSerif;-inkscape-font-specification:KyrillaSansSerif Bold"
           d="m 688.43025,819.57388 0,-16.79 -4.015,0 0,-43.362 -34.456,0 c -0.14601,3.50405 -0.34068,7.15404 -0.584,10.95 -0.19468,3.74737 -0.55968,7.4947 -1.095,11.242 -0.48668,3.74736 -1.24101,7.42169 -2.263,11.023 -0.97334,3.60135 -2.28734,6.98368 -3.942,10.147 l -4.599,0 0,16.79 9.49,0 0,-7.738 31.974,0 0,7.738 9.49,0 m -14.965,-16.79 -20.44,0 c 1.02198,-1.99533 1.92232,-4.47732 2.701,-7.446 0.82731,-2.96865 1.50865,-6.05898 2.044,-9.271 0.53531,-3.21197 0.92464,-6.3753 1.168,-9.49 0.29198,-3.11463 0.46231,-5.81563 0.511,-8.103 l 14.016,0 0,34.31"
           inkscape:connector-curvature="0" />
      </g>
      <g
         id="g4046"
         transform="translate(707.91663,185.36679)">
        <g
           id="text3078"
           style="font-size:40px;font-style:normal;font-weight:normal;line-height:125%;letter-spacing:0px;word-spacing:0px;fill:#ffffff;fill-opacity:1;stroke:none;font-family:Sans">
          <path
             id="path3184"
             style="font-size:47px;font-variant:normal;font-weight:bold;font-stretch:normal;text-align:end;text-anchor:end;fill:#ffffff;font-family:KyrillaSansSerif;-inkscape-font-specification:KyrillaSansSerif Bold"
             d="m 383.46571,897.65059 c 0.0313,-0.18799 0.047,-0.37599 0.047,-0.564 -3e-5,-0.21932 -3e-5,-0.43865 0,-0.658 -3e-5,-1.87998 -0.26636,-3.65032 -0.799,-5.311 -0.50136,-1.66065 -1.25336,-3.11764 -2.256,-4.371 -1.00269,-1.25331 -2.24036,-2.24031 -3.713,-2.961 -1.47269,-0.75197 -3.16469,-1.12797 -5.076,-1.128 -1.84868,3e-5 -3.54068,0.34469 -5.076,1.034 -1.50401,0.65803 -2.80434,1.59802 -3.901,2.82 -1.09668,1.19069 -1.94267,2.60069 -2.538,4.23 -0.59534,1.62935 -0.89301,3.38402 -0.893,5.264 -1e-5,1.94268 0.28199,3.72868 0.846,5.358 0.59533,1.62934 1.42566,3.03934 2.491,4.23 1.06532,1.15934 2.36565,2.068 3.901,2.726 1.53532,0.658 3.25865,0.987 5.17,0.987 5.79664,0 9.58797,-2.83566 11.374,-8.507 l -5.875,0 c -0.15669,0.53268 -0.43869,1.00267 -0.846,1.41 -0.37602,0.40734 -0.81469,0.75201 -1.316,1.034 -0.47002,0.28201 -0.98702,0.50134 -1.551,0.658 -0.56402,0.12534 -1.08102,0.18801 -1.551,0.188 -2.00535,10e-6 -3.49368,-0.56399 -4.465,-1.692 -0.94001,-1.12799 -1.44135,-2.71032 -1.504,-4.747 l 17.531,0 m -6.674,-4.371 -10.857,0 c 0.0627,-1.66065 0.59532,-2.97665 1.598,-3.948 1.03398,-0.97131 2.34998,-1.45698 3.948,-1.457 1.72331,2e-5 2.96098,0.50135 3.713,1.504 0.78331,0.97135 1.31598,2.27168 1.598,3.901"
             inkscape:connector-curvature="0" />
          <path
             id="path3186"
             style="font-size:47px;font-variant:normal;font-weight:bold;font-stretch:normal;text-align:end;text-anchor:end;fill:#ffffff;font-family:KyrillaSansSerif;-inkscape-font-specification:KyrillaSansSerif Bold"
             d="m 410.50099,908.13159 0,-25.004 -7.097,0 -8.836,14.946 -0.094,0 0,-14.946 -6.486,0 0,25.004 7.097,0 8.836,-15.087 0.094,0 0,15.087 6.486,0"
             inkscape:connector-curvature="0" />
          <path
             id="path3188"
             style="font-size:47px;font-variant:normal;font-weight:bold;font-stretch:normal;text-align:end;text-anchor:end;fill:#ffffff;font-family:KyrillaSansSerif;-inkscape-font-specification:KyrillaSansSerif Bold"
             d="m 454.8073,908.13159 0,-33.558 -6.674,0 0,12.22 -0.047,0 c -0.78335,-1.19064 -1.83302,-2.08364 -3.149,-2.679 -1.31602,-0.62664 -2.67901,-0.93997 -4.089,-0.94 -1.78601,3e-5 -3.35268,0.36036 -4.7,1.081 -1.34734,0.68936 -2.47534,1.61369 -3.384,2.773 -0.87734,1.15936 -1.551,2.50669 -2.021,4.042 -0.43867,1.50402 -0.658,3.07068 -0.658,4.7 0,1.66068 0.21933,3.27434 0.658,4.841 0.43866,1.56667 1.11233,2.96101 2.021,4.183 0.90866,1.19067 2.03666,2.162 3.384,2.914 1.37866,0.72067 2.99232,1.081 4.841,1.081 1.50398,0 2.89832,-0.282 4.183,-0.846 1.31598,-0.59533 2.38131,-1.56666 3.196,-2.914 l 0.094,0 0,3.102 6.345,0 m -6.439,-12.22 c -2e-5,0.94001 -0.094,1.88001 -0.282,2.82 -0.15669,0.94001 -0.45435,1.78601 -0.893,2.538 -0.43869,0.75201 -1.03402,1.36301 -1.786,1.833 -0.72068,0.43867 -1.64502,0.65801 -2.773,0.658 -1.06535,10e-6 -1.97401,-0.23499 -2.726,-0.705 -0.72068,-0.46999 -1.31601,-1.08099 -1.786,-1.833 -0.47001,-0.75199 -0.81468,-1.58232 -1.034,-2.491 -0.21934,-0.93999 -0.32901,-1.86432 -0.329,-2.773 -10e-6,-0.93999 0.094,-1.87998 0.282,-2.82 0.18799,-0.93998 0.50132,-1.77031 0.94,-2.491 0.46999,-0.72065 1.08099,-1.30031 1.833,-1.739 0.75199,-0.46998 1.69199,-0.70498 2.82,-0.705 1.09665,2e-5 2.00532,0.23502 2.726,0.705 0.75198,0.43869 1.34731,1.01835 1.786,1.739 0.43865,0.72069 0.75198,1.55102 0.94,2.491 0.18798,0.90868 0.28198,1.83301 0.282,2.773"
             inkscape:connector-curvature="0" />
          <path
             id="path3190"
             style="font-size:47px;font-variant:normal;font-weight:bold;font-stretch:normal;text-align:end;text-anchor:end;fill:#ffffff;font-family:KyrillaSansSerif;-inkscape-font-specification:KyrillaSansSerif Bold"
             d="m 482.78992,897.65059 c 0.0313,-0.18799 0.047,-0.37599 0.047,-0.564 -2e-5,-0.21932 -2e-5,-0.43865 0,-0.658 -2e-5,-1.87998 -0.26635,-3.65032 -0.799,-5.311 -0.50135,-1.66065 -1.25335,-3.11764 -2.256,-4.371 -1.00268,-1.25331 -2.24035,-2.24031 -3.713,-2.961 -1.47268,-0.75197 -3.16468,-1.12797 -5.076,-1.128 -1.84867,3e-5 -3.54067,0.34469 -5.076,1.034 -1.504,0.65803 -2.80434,1.59802 -3.901,2.82 -1.09667,1.19069 -1.94267,2.60069 -2.538,4.23 -0.59533,1.62935 -0.893,3.38402 -0.893,5.264 0,1.94268 0.282,3.72868 0.846,5.358 0.59533,1.62934 1.42567,3.03934 2.491,4.23 1.06533,1.15934 2.36566,2.068 3.901,2.726 1.53533,0.658 3.25866,0.987 5.17,0.987 5.79665,0 9.58798,-2.83566 11.374,-8.507 l -5.875,0 c -0.15668,0.53268 -0.43868,1.00267 -0.846,1.41 -0.37601,0.40734 -0.81468,0.75201 -1.316,1.034 -0.47001,0.28201 -0.98701,0.50134 -1.551,0.658 -0.56401,0.12534 -1.08101,0.18801 -1.551,0.188 -2.00534,10e-6 -3.49367,-0.56399 -4.465,-1.692 -0.94,-1.12799 -1.44134,-2.71032 -1.504,-4.747 l 17.531,0 m -6.674,-4.371 -10.857,0 c 0.0627,-1.66065 0.59533,-2.97665 1.598,-3.948 1.03399,-0.97131 2.34999,-1.45698 3.948,-1.457 1.72332,2e-5 2.96099,0.50135 3.713,1.504 0.78332,0.97135 1.31599,2.27168 1.598,3.901"
             inkscape:connector-curvature="0" />
          <path
             id="path3192"
             style="font-size:47px;font-variant:normal;font-weight:bold;font-stretch:normal;text-align:end;text-anchor:end;fill:#ffffff;font-family:KyrillaSansSerif;-inkscape-font-specification:KyrillaSansSerif Bold"
             d="m 499.86121,879.74359 0,-4.982 c -0.59535,-0.0313 -1.19069,-0.0626 -1.786,-0.094 -0.56402,-0.0626 -1.14368,-0.094 -1.739,-0.094 -1.19068,4e-5 -2.28735,0.1567 -3.29,0.47 -0.97135,0.31337 -1.81735,0.78337 -2.538,1.41 -0.72068,0.59537 -1.28468,1.36303 -1.692,2.303 -0.40734,0.9087 -0.61101,1.97403 -0.611,3.196 l 0,1.88 -3.995,0 0,4.465 3.995,0 0,19.834 6.674,0 0,-19.834 4.606,0 0,-4.465 -4.606,0 c -2e-5,-0.53264 -2e-5,-1.04964 0,-1.551 -2e-5,-0.53264 0.0627,-0.98697 0.188,-1.363 0.15665,-0.4073 0.40732,-0.72064 0.752,-0.94 0.34465,-0.25064 0.87732,-0.37597 1.598,-0.376 0.81465,3e-5 1.62931,0.047 2.444,0.141"
             inkscape:connector-curvature="0" />
          <path
             id="path3194"
             style="font-size:47px;font-variant:normal;font-weight:bold;font-stretch:normal;text-align:end;text-anchor:end;fill:#ffffff;font-family:KyrillaSansSerif;-inkscape-font-specification:KyrillaSansSerif Bold"
             d="m 525.47547,897.65059 c 0.0313,-0.18799 0.047,-0.37599 0.047,-0.564 -2e-5,-0.21932 -2e-5,-0.43865 0,-0.658 -2e-5,-1.87998 -0.26636,-3.65032 -0.799,-5.311 -0.50136,-1.66065 -1.25336,-3.11764 -2.256,-4.371 -1.00269,-1.25331 -2.24035,-2.24031 -3.713,-2.961 -1.47268,-0.75197 -3.16468,-1.12797 -5.076,-1.128 -1.84868,3e-5 -3.54068,0.34469 -5.076,1.034 -1.50401,0.65803 -2.80434,1.59802 -3.901,2.82 -1.09667,1.19069 -1.94267,2.60069 -2.538,4.23 -0.59533,1.62935 -0.893,3.38402 -0.893,5.264 0,1.94268 0.282,3.72868 0.846,5.358 0.59533,1.62934 1.42566,3.03934 2.491,4.23 1.06533,1.15934 2.36566,2.068 3.901,2.726 1.53532,0.658 3.25866,0.987 5.17,0.987 5.79665,0 9.58798,-2.83566 11.374,-8.507 l -5.875,0 c -0.15669,0.53268 -0.43868,1.00267 -0.846,1.41 -0.37602,0.40734 -0.81468,0.75201 -1.316,1.034 -0.47002,0.28201 -0.98702,0.50134 -1.551,0.658 -0.56401,0.12534 -1.08101,0.18801 -1.551,0.188 -2.00534,10e-6 -3.49368,-0.56399 -4.465,-1.692 -0.94001,-1.12799 -1.44134,-2.71032 -1.504,-4.747 l 17.531,0 m -6.674,-4.371 -10.857,0 c 0.0627,-1.66065 0.59533,-2.97665 1.598,-3.948 1.03399,-0.97131 2.34999,-1.45698 3.948,-1.457 1.72332,2e-5 2.96098,0.50135 3.713,1.504 0.78332,0.97135 1.31598,2.27168 1.598,3.901"
             inkscape:connector-curvature="0" />
          <path
             id="path3196"
             style="font-size:47px;font-variant:normal;font-weight:bold;font-stretch:normal;text-align:end;text-anchor:end;fill:#ffffff;font-family:KyrillaSansSerif;-inkscape-font-specification:KyrillaSansSerif Bold"
             d="m 552.51075,908.13159 0,-25.004 -7.097,0 -8.836,14.946 -0.094,0 0,-14.946 -6.486,0 0,25.004 7.097,0 8.836,-15.087 0.094,0 0,15.087 6.486,0"
             inkscape:connector-curvature="0" />
          <path
             id="path3198"
             style="font-size:47px;font-variant:normal;font-weight:bold;font-stretch:normal;text-align:end;text-anchor:end;fill:#ffffff;font-family:KyrillaSansSerif;-inkscape-font-specification:KyrillaSansSerif Bold"
             d="m 579.50417,900.51759 c -2e-5,-1.56666 -0.37602,-2.80432 -1.128,-3.713 -0.75202,-0.90865 -1.69202,-1.62932 -2.82,-2.162 -1.12801,-0.53265 -2.36568,-0.92432 -3.713,-1.175 -1.31601,-0.28198 -2.53801,-0.56398 -3.666,-0.846 -1.12801,-0.28198 -2.06801,-0.62665 -2.82,-1.034 -0.75201,-0.43865 -1.128,-1.08098 -1.128,-1.927 0,-0.50131 0.12533,-0.90865 0.376,-1.222 0.25066,-0.31331 0.54833,-0.54831 0.893,-0.705 0.37599,-0.18798 0.78333,-0.29764 1.222,-0.329 0.43866,-0.0626 0.84599,-0.094 1.222,-0.094 1.15932,2e-5 2.17766,0.23502 3.055,0.705 0.90865,0.43869 1.40999,1.34735 1.504,2.726 l 6.345,0 c -0.12535,-1.53531 -0.51702,-2.81998 -1.175,-3.854 -0.62668,-1.06531 -1.42568,-1.89564 -2.397,-2.491 -0.97135,-0.62664 -2.08368,-1.06531 -3.337,-1.316 -1.22201,-0.28197 -2.49101,-0.42297 -3.807,-0.423 -1.31601,3e-5 -2.60067,0.12536 -3.854,0.376 -1.25334,0.25069 -2.38134,0.68936 -3.384,1.316 -1.00267,0.59536 -1.81733,1.42569 -2.444,2.491 -0.59533,1.03402 -0.893,2.35002 -0.893,3.948 0,1.47268 0.376,2.64768 1.128,3.525 0.752,0.84601 1.692,1.51968 2.82,2.021 1.128,0.50135 2.35,0.89301 3.666,1.175 1.34733,0.28201 2.58499,0.57968 3.713,0.893 1.12799,0.28201 2.06799,0.65801 2.82,1.128 0.75199,0.43868 1.12799,1.06534 1.128,1.88 -10e-6,0.62667 -0.14101,1.14367 -0.423,1.551 -0.28201,0.40734 -0.64235,0.73634 -1.081,0.987 -0.40734,0.25067 -0.87734,0.43867 -1.41,0.564 -0.50134,0.094 -0.98701,0.14101 -1.457,0.141 -0.65801,10e-6 -1.30034,-0.0783 -1.927,-0.235 -0.59534,-0.15666 -1.12801,-0.40733 -1.598,-0.752 -0.47001,-0.34466 -0.86167,-0.78333 -1.175,-1.316 -0.282,-0.53266 -0.423,-1.17499 -0.423,-1.927 l -6.345,0 c 0.0627,1.66067 0.423,3.07067 1.081,4.23 0.68933,1.128 1.551,2.03667 2.585,2.726 1.06533,0.68934 2.27166,1.175 3.619,1.457 1.34733,0.31333 2.72599,0.47 4.136,0.47 1.37866,0 2.72599,-0.15667 4.042,-0.47 1.34732,-0.282 2.53798,-0.752 3.572,-1.41 1.03398,-0.68933 1.86431,-1.598 2.491,-2.726 0.65798,-1.12799 0.98698,-2.52233 0.987,-4.183"
             inkscape:connector-curvature="0" />
          <path
             id="path3200"
             style="font-size:47px;font-variant:normal;font-weight:bold;font-stretch:normal;text-align:end;text-anchor:end;fill:#ffffff;font-family:KyrillaSansSerif;-inkscape-font-specification:KyrillaSansSerif Bold"
             d="m 606.06431,908.27259 c -0.18802,-0.31333 -0.34469,-0.705 -0.47,-1.175 -0.094,-0.50133 -0.17235,-1.01833 -0.235,-1.551 -0.0627,-0.53266 -0.10969,-1.04966 -0.141,-1.551 -2e-5,-0.50133 -2e-5,-0.93999 0,-1.316 l 0,-12.831 c -2e-5,-1.53531 -0.34469,-2.77298 -1.034,-3.713 -0.65802,-0.93998 -1.51968,-1.66064 -2.585,-2.162 -1.03402,-0.53264 -2.17768,-0.87731 -3.431,-1.034 -1.25334,-0.18797 -2.45968,-0.28197 -3.619,-0.282 -1.34734,3e-5 -2.69467,0.14103 -4.042,0.423 -1.316,0.25069 -2.50667,0.70503 -3.572,1.363 -1.06533,0.65802 -1.94267,1.53536 -2.632,2.632 -0.68933,1.06536 -1.081,2.41269 -1.175,4.042 l 6.674,0 c 0.12533,-1.37865 0.57966,-2.34998 1.363,-2.914 0.78333,-0.59531 1.80166,-0.89298 3.055,-0.893 0.59532,2e-5 1.15932,0.047 1.692,0.141 0.53266,0.0627 0.98699,0.21936 1.363,0.47 0.40732,0.25069 0.72065,0.59535 0.94,1.034 0.21932,0.43869 0.32899,1.03402 0.329,1.786 -10e-6,0.94002 -0.40735,1.59802 -1.222,1.974 -0.78334,0.37602 -1.77034,0.64235 -2.961,0.799 -1.19067,0.15668 -2.49101,0.29768 -3.901,0.423 -1.41,0.12535 -2.71034,0.43868 -3.901,0.94 -1.19067,0.47001 -2.19333,1.20635 -3.008,2.209 -0.78333,1.00268 -1.175,2.44401 -1.175,4.324 0,1.28467 0.20367,2.41267 0.611,3.384 0.43867,0.94 1.034,1.72334 1.786,2.35 0.752,0.62667 1.62933,1.081 2.632,1.363 1.00266,0.31333 2.08366,0.47 3.243,0.47 1.50399,0 2.97666,-0.235 4.418,-0.705 1.44132,-0.47 2.69465,-1.28466 3.76,-2.444 0.0313,0.43867 0.0783,0.86167 0.141,1.269 0.094,0.376 0.20365,0.76767 0.329,1.175 l 6.768,0 m -7.52,-9.447 c -10e-6,1.84868 -0.43868,3.22734 -1.316,4.136 -0.84601,0.90867 -2.20901,1.36301 -4.089,1.363 -0.53267,1e-5 -1.04967,-0.047 -1.551,-0.141 -0.47001,-0.094 -0.89301,-0.25066 -1.269,-0.47 -0.376,-0.25066 -0.68934,-0.57966 -0.94,-0.987 -0.21934,-0.43866 -0.329,-0.98699 -0.329,-1.645 0,-0.81466 0.17233,-1.45699 0.517,-1.927 0.376,-0.46999 0.84599,-0.83032 1.41,-1.081 0.59533,-0.25065 1.23766,-0.42299 1.927,-0.517 0.72066,-0.094 1.42566,-0.17232 2.115,-0.235 0.72066,-0.094 1.39432,-0.20365 2.021,-0.329 0.62665,-0.15665 1.12799,-0.40732 1.504,-0.752 l 0,2.585"
             inkscape:connector-curvature="0" />
          <path
             id="path3202"
             style="font-size:47px;font-variant:normal;font-weight:bold;font-stretch:normal;text-align:end;text-anchor:end;fill:#ffffff;font-family:KyrillaSansSerif;-inkscape-font-specification:KyrillaSansSerif Bold"
             d="m 648.95769,908.13159 0,-33.558 -6.674,0 0,12.22 -0.047,0 c -0.78335,-1.19064 -1.83302,-2.08364 -3.149,-2.679 -1.31602,-0.62664 -2.67901,-0.93997 -4.089,-0.94 -1.78601,3e-5 -3.35268,0.36036 -4.7,1.081 -1.34734,0.68936 -2.47534,1.61369 -3.384,2.773 -0.87734,1.15936 -1.551,2.50669 -2.021,4.042 -0.43867,1.50402 -0.658,3.07068 -0.658,4.7 0,1.66068 0.21933,3.27434 0.658,4.841 0.43866,1.56667 1.11233,2.96101 2.021,4.183 0.90866,1.19067 2.03666,2.162 3.384,2.914 1.37866,0.72067 2.99232,1.081 4.841,1.081 1.50399,0 2.89832,-0.282 4.183,-0.846 1.31598,-0.59533 2.38131,-1.56666 3.196,-2.914 l 0.094,0 0,3.102 6.345,0 m -6.439,-12.22 c -2e-5,0.94001 -0.094,1.88001 -0.282,2.82 -0.15669,0.94001 -0.45435,1.78601 -0.893,2.538 -0.43869,0.75201 -1.03402,1.36301 -1.786,1.833 -0.72068,0.43867 -1.64502,0.65801 -2.773,0.658 -1.06535,10e-6 -1.97401,-0.23499 -2.726,-0.705 -0.72068,-0.46999 -1.31601,-1.08099 -1.786,-1.833 -0.47001,-0.75199 -0.81468,-1.58232 -1.034,-2.491 -0.21934,-0.93999 -0.32901,-1.86432 -0.329,-2.773 -10e-6,-0.93999 0.094,-1.87998 0.282,-2.82 0.18799,-0.93998 0.50132,-1.77031 0.94,-2.491 0.46999,-0.72065 1.08099,-1.30031 1.833,-1.739 0.75199,-0.46998 1.69199,-0.70498 2.82,-0.705 1.09665,2e-5 2.00532,0.23502 2.726,0.705 0.75198,0.43869 1.34731,1.01835 1.786,1.739 0.43865,0.72069 0.75198,1.55102 0.94,2.491 0.18798,0.90868 0.28198,1.83301 0.282,2.773"
             inkscape:connector-curvature="0" />
          <path
             id="path3204"
             style="font-size:47px;font-variant:normal;font-weight:bold;font-stretch:normal;text-align:end;text-anchor:end;fill:#ffffff;font-family:KyrillaSansSerif;-inkscape-font-specification:KyrillaSansSerif Bold"
             d="m 676.94031,897.65059 c 0.0313,-0.18799 0.047,-0.37599 0.047,-0.564 -2e-5,-0.21932 -2e-5,-0.43865 0,-0.658 -2e-5,-1.87998 -0.26635,-3.65032 -0.799,-5.311 -0.50135,-1.66065 -1.25335,-3.11764 -2.256,-4.371 -1.00268,-1.25331 -2.24035,-2.24031 -3.713,-2.961 -1.47268,-0.75197 -3.16468,-1.12797 -5.076,-1.128 -1.84867,3e-5 -3.54067,0.34469 -5.076,1.034 -1.504,0.65803 -2.80433,1.59802 -3.901,2.82 -1.09667,1.19069 -1.94267,2.60069 -2.538,4.23 -0.59533,1.62935 -0.893,3.38402 -0.893,5.264 0,1.94268 0.282,3.72868 0.846,5.358 0.59533,1.62934 1.42567,3.03934 2.491,4.23 1.06533,1.15934 2.36566,2.068 3.901,2.726 1.53533,0.658 3.25866,0.987 5.17,0.987 5.79665,0 9.58798,-2.83566 11.374,-8.507 l -5.875,0 c -0.15668,0.53268 -0.43868,1.00267 -0.846,1.41 -0.37601,0.40734 -0.81468,0.75201 -1.316,1.034 -0.47001,0.28201 -0.98701,0.50134 -1.551,0.658 -0.56401,0.12534 -1.08101,0.18801 -1.551,0.188 -2.00534,10e-6 -3.49367,-0.56399 -4.465,-1.692 -0.94,-1.12799 -1.44134,-2.71032 -1.504,-4.747 l 17.531,0 m -6.674,-4.371 -10.857,0 c 0.0627,-1.66065 0.59533,-2.97665 1.598,-3.948 1.03399,-0.97131 2.34999,-1.45698 3.948,-1.457 1.72332,2e-5 2.96099,0.50135 3.713,1.504 0.78332,0.97135 1.31599,2.27168 1.598,3.901"
             inkscape:connector-curvature="0" />
          <path
             id="path3206"
             style="font-size:47px;font-variant:normal;font-weight:bold;font-stretch:normal;text-align:end;text-anchor:end;fill:#ffffff;font-family:KyrillaSansSerif;-inkscape-font-specification:KyrillaSansSerif Bold"
             d="m 687.7606,908.13159 0,-33.558 -6.674,0 0,33.558 6.674,0"
             inkscape:connector-curvature="0" />
          <path
             id="path3208"
             style="font-size:47px;font-variant:normal;font-weight:bold;font-stretch:normal;text-align:end;letter-spacing:1.70000005px;text-anchor:end;fill:#ffffff;font-family:KyrillaSansSerif;-inkscape-font-specification:KyrillaSansSerif Bold"
             d="m 382.16394,959.26759 c -3e-5,-1.56666 -0.37602,-2.80432 -1.128,-3.713 -0.75202,-0.90865 -1.69202,-1.62932 -2.82,-2.162 -1.12802,-0.53265 -2.36569,-0.92432 -3.713,-1.175 -1.31602,-0.28198 -2.53801,-0.56398 -3.666,-0.846 -1.12801,-0.28198 -2.06801,-0.62665 -2.82,-1.034 -0.75201,-0.43865 -1.12801,-1.08098 -1.128,-1.927 -10e-6,-0.50131 0.12532,-0.90865 0.376,-1.222 0.25066,-0.31331 0.54832,-0.54831 0.893,-0.705 0.37599,-0.18798 0.78332,-0.29764 1.222,-0.329 0.43865,-0.0626 0.84599,-0.094 1.222,-0.094 1.15932,2e-5 2.17765,0.23502 3.055,0.705 0.90865,0.43869 1.40998,1.34735 1.504,2.726 l 6.345,0 c -0.12536,-1.53531 -0.51702,-2.81998 -1.175,-3.854 -0.62669,-1.06531 -1.42569,-1.89564 -2.397,-2.491 -0.97135,-0.62664 -2.08369,-1.06531 -3.337,-1.316 -1.22202,-0.28197 -2.49101,-0.42297 -3.807,-0.423 -1.31601,3e-5 -2.60068,0.12536 -3.854,0.376 -1.25334,0.25069 -2.38134,0.68936 -3.384,1.316 -1.00267,0.59536 -1.81734,1.42569 -2.444,2.491 -0.59534,1.03402 -0.893,2.35002 -0.893,3.948 0,1.47268 0.376,2.64768 1.128,3.525 0.752,0.84601 1.69199,1.51968 2.82,2.021 1.12799,0.50135 2.34999,0.89301 3.666,1.175 1.34732,0.28201 2.58499,0.57968 3.713,0.893 1.12798,0.28201 2.06798,0.65801 2.82,1.128 0.75198,0.43868 1.12798,1.06534 1.128,1.88 -2e-5,0.62667 -0.14102,1.14367 -0.423,1.551 -0.28202,0.40734 -0.64235,0.73634 -1.081,0.987 -0.40735,0.25067 -0.87735,0.43867 -1.41,0.564 -0.50135,0.094 -0.98701,0.14101 -1.457,0.141 -0.65801,10e-6 -1.30035,-0.0783 -1.927,-0.235 -0.59534,-0.15666 -1.12801,-0.40733 -1.598,-0.752 -0.47001,-0.34466 -0.86168,-0.78333 -1.175,-1.316 -0.28201,-0.53266 -0.42301,-1.17499 -0.423,-1.927 l -6.345,0 c 0.0627,1.66067 0.423,3.07067 1.081,4.23 0.68933,1.128 1.55099,2.03667 2.585,2.726 1.06533,0.68934 2.27166,1.175 3.619,1.457 1.34732,0.31333 2.72599,0.47 4.136,0.47 1.37865,0 2.72598,-0.15667 4.042,-0.47 1.34731,-0.282 2.53798,-0.752 3.572,-1.41 1.03398,-0.68933 1.86431,-1.598 2.491,-2.726 0.65798,-1.12799 0.98697,-2.52233 0.987,-4.183"
             inkscape:connector-curvature="0" />
          <path
             id="path3210"
             style="font-size:47px;font-variant:normal;font-weight:bold;font-stretch:normal;text-align:end;letter-spacing:1.70000005px;text-anchor:end;fill:#ffffff;font-family:KyrillaSansSerif;-inkscape-font-specification:KyrillaSansSerif Bold"
             d="m 412.16308,954.75559 c -3e-5,-1.91132 -0.29769,-3.65032 -0.893,-5.217 -0.56403,-1.59798 -1.39436,-2.96098 -2.491,-4.089 -1.09669,-1.12798 -2.42835,-1.98964 -3.995,-2.585 -1.53535,-0.62664 -3.27435,-0.93997 -5.217,-0.94 -1.94268,3e-5 -3.68168,0.31336 -5.217,0.94 -1.53534,0.62669 -2.85134,1.50402 -3.948,2.632 -1.09667,1.12802 -1.94267,2.47535 -2.538,4.042 -0.564,1.56668 -0.846,3.30568 -0.846,5.217 0,1.91135 0.282,3.65034 0.846,5.217 0.59533,1.56667 1.44133,2.91401 2.538,4.042 1.09666,1.128 2.41266,2.00534 3.948,2.632 1.53532,0.59533 3.27432,0.893 5.217,0.893 1.91132,0 3.65032,-0.29767 5.217,-0.893 1.56665,-0.62666 2.88264,-1.504 3.948,-2.632 1.09664,-1.12799 1.94264,-2.47533 2.538,-4.042 0.59531,-1.56666 0.89297,-3.30565 0.893,-5.217 m -6.674,0 c -2e-5,0.97135 -0.094,1.92701 -0.282,2.867 -0.18802,0.90868 -0.51702,1.73901 -0.987,2.491 -0.47002,0.72067 -1.08102,1.30034 -1.833,1.739 -0.75202,0.43867 -1.69202,0.65801 -2.82,0.658 -1.12801,10e-6 -2.06801,-0.21933 -2.82,-0.658 -0.75201,-0.43866 -1.36301,-1.01833 -1.833,-1.739 -0.43868,-0.75199 -0.75201,-1.58232 -0.94,-2.491 -0.18801,-0.93999 -0.28201,-1.89565 -0.282,-2.867 -10e-6,-0.97132 0.094,-1.91132 0.282,-2.82 0.18799,-0.93998 0.50132,-1.77031 0.94,-2.491 0.46999,-0.75198 1.08099,-1.34731 1.833,-1.786 0.75199,-0.46998 1.69199,-0.70498 2.82,-0.705 1.12798,2e-5 2.06798,0.23502 2.82,0.705 0.78332,0.43869 1.39432,1.01835 1.833,1.739 0.46998,0.72069 0.79898,1.55102 0.987,2.491 0.18798,0.94002 0.28198,1.89568 0.282,2.867"
             inkscape:connector-curvature="0" />
          <path
             id="path3212"
             style="font-size:47px;font-variant:normal;font-weight:bold;font-stretch:normal;text-align:end;letter-spacing:1.70000005px;text-anchor:end;fill:#ffffff;font-family:KyrillaSansSerif;-inkscape-font-specification:KyrillaSansSerif Bold"
             d="m 431.22371,938.49359 0,-4.982 c -0.59535,-0.0313 -1.19069,-0.0626 -1.786,-0.094 -0.56402,-0.0626 -1.14368,-0.094 -1.739,-0.094 -1.19068,4e-5 -2.28735,0.1567 -3.29,0.47 -0.97135,0.31337 -1.81734,0.78337 -2.538,1.41 -0.72068,0.59537 -1.28468,1.36303 -1.692,2.303 -0.40734,0.9087 -0.61101,1.97403 -0.611,3.196 l 0,1.88 -3.995,0 0,4.465 3.995,0 0,19.834 6.674,0 0,-19.834 4.606,0 0,-4.465 -4.606,0 c -1e-5,-0.53264 -1e-5,-1.04964 0,-1.551 -1e-5,-0.53264 0.0626,-0.98697 0.188,-1.363 0.15665,-0.4073 0.40732,-0.72064 0.752,-0.94 0.34465,-0.25064 0.87732,-0.37597 1.598,-0.376 0.81465,3e-5 1.62931,0.047 2.444,0.141"
             inkscape:connector-curvature="0" />
          <path
             id="path3214"
             style="font-size:47px;font-variant:normal;font-weight:bold;font-stretch:normal;text-align:end;letter-spacing:1.70000005px;text-anchor:end;fill:#ffffff;font-family:KyrillaSansSerif;-inkscape-font-specification:KyrillaSansSerif Bold"
             d="m 448.85597,966.92859 0,-5.217 c -0.59535,0.12534 -1.28468,0.18801 -2.068,0.188 -1.12801,10e-6 -1.88001,-0.18799 -2.256,-0.564 -0.37601,-0.37599 -0.56401,-1.12799 -0.564,-2.256 l 0,-12.032 4.888,0 0,-4.465 -4.888,0 0,-7.285 -6.674,0 0,7.285 -4.042,0 0,4.465 4.042,0 0,14.335 c -10e-6,1.22201 0.20366,2.20901 0.611,2.961 0.40733,0.752 0.95566,1.34734 1.645,1.786 0.72066,0.40734 1.53532,0.67367 2.444,0.799 0.93999,0.15667 1.92699,0.235 2.961,0.235 0.65799,0 1.31599,-0.0157 1.974,-0.047 0.65798,0 1.30032,-0.0627 1.927,-0.188"
             inkscape:connector-curvature="0" />
          <path
             id="path3216"
             style="font-size:47px;font-variant:normal;font-weight:bold;font-stretch:normal;text-align:end;letter-spacing:1.70000005px;text-anchor:end;fill:#ffffff;font-family:KyrillaSansSerif;-inkscape-font-specification:KyrillaSansSerif Bold"
             d="m 487.28941,966.88159 0,-25.004 -6.486,0 0,19.74 -6.768,0 0,-19.74 -6.486,0 0,19.74 -6.768,0 0,-19.74 -6.486,0 0,25.004 32.994,0"
             inkscape:connector-curvature="0" />
          <path
             id="path3218"
             style="font-size:47px;font-variant:normal;font-weight:bold;font-stretch:normal;text-align:end;letter-spacing:1.70000005px;text-anchor:end;fill:#ffffff;font-family:KyrillaSansSerif;-inkscape-font-specification:KyrillaSansSerif Bold"
             d="m 517.28267,967.02259 c -0.18802,-0.31333 -0.34469,-0.705 -0.47,-1.175 -0.094,-0.50133 -0.17235,-1.01833 -0.235,-1.551 -0.0627,-0.53266 -0.10969,-1.04966 -0.141,-1.551 -2e-5,-0.50133 -2e-5,-0.93999 0,-1.316 l 0,-12.831 c -2e-5,-1.53531 -0.34469,-2.77298 -1.034,-3.713 -0.65802,-0.93998 -1.51969,-1.66064 -2.585,-2.162 -1.03402,-0.53264 -2.17768,-0.87731 -3.431,-1.034 -1.25335,-0.18797 -2.45968,-0.28197 -3.619,-0.282 -1.34734,3e-5 -2.69467,0.14103 -4.042,0.423 -1.31601,0.25069 -2.50667,0.70503 -3.572,1.363 -1.06534,0.65802 -1.94267,1.53536 -2.632,2.632 -0.68933,1.06536 -1.081,2.41269 -1.175,4.042 l 6.674,0 c 0.12533,-1.37865 0.57966,-2.34998 1.363,-2.914 0.78333,-0.59531 1.80166,-0.89298 3.055,-0.893 0.59532,2e-5 1.15932,0.047 1.692,0.141 0.53265,0.0627 0.98699,0.21936 1.363,0.47 0.40732,0.25069 0.72065,0.59535 0.94,1.034 0.21932,0.43869 0.32899,1.03402 0.329,1.786 -1e-5,0.94002 -0.40735,1.59802 -1.222,1.974 -0.78335,0.37602 -1.77034,0.64235 -2.961,0.799 -1.19068,0.15668 -2.49101,0.29768 -3.901,0.423 -1.41,0.12535 -2.71034,0.43868 -3.901,0.94 -1.19067,0.47001 -2.19333,1.20635 -3.008,2.209 -0.78333,1.00268 -1.175,2.44401 -1.175,4.324 0,1.28467 0.20367,2.41267 0.611,3.384 0.43867,0.94 1.034,1.72334 1.786,2.35 0.752,0.62667 1.62933,1.081 2.632,1.363 1.00266,0.31333 2.08366,0.47 3.243,0.47 1.50399,0 2.97666,-0.235 4.418,-0.705 1.44132,-0.47 2.69465,-1.28466 3.76,-2.444 0.0313,0.43867 0.0783,0.86167 0.141,1.269 0.094,0.376 0.20365,0.76767 0.329,1.175 l 6.768,0 m -7.52,-9.447 c -1e-5,1.84868 -0.43868,3.22734 -1.316,4.136 -0.84601,0.90867 -2.20901,1.36301 -4.089,1.363 -0.53268,1e-5 -1.04967,-0.047 -1.551,-0.141 -0.47001,-0.094 -0.89301,-0.25066 -1.269,-0.47 -0.37601,-0.25066 -0.68934,-0.57966 -0.94,-0.987 -0.21934,-0.43866 -0.329,-0.98699 -0.329,-1.645 0,-0.81466 0.17233,-1.45699 0.517,-1.927 0.37599,-0.46999 0.84599,-0.83032 1.41,-1.081 0.59533,-0.25065 1.23766,-0.42299 1.927,-0.517 0.72066,-0.094 1.42566,-0.17232 2.115,-0.235 0.72066,-0.094 1.39432,-0.20365 2.021,-0.329 0.62665,-0.15665 1.12799,-0.40732 1.504,-0.752 l 0,2.585"
             inkscape:connector-curvature="0" />
          <path
             id="path3220"
             style="font-size:47px;font-variant:normal;font-weight:bold;font-stretch:normal;text-align:end;letter-spacing:1.70000005px;text-anchor:end;fill:#ffffff;font-family:KyrillaSansSerif;-inkscape-font-specification:KyrillaSansSerif Bold"
             d="m 536.85515,947.14159 0,-5.264 -13.066,0 0,25.004 6.486,0 0,-19.74 6.58,0"
             inkscape:connector-curvature="0" />
          <path
             id="path3222"
             style="font-size:47px;font-variant:normal;font-weight:bold;font-stretch:normal;text-align:end;letter-spacing:1.70000005px;text-anchor:end;fill:#ffffff;font-family:KyrillaSansSerif;-inkscape-font-specification:KyrillaSansSerif Bold"
             d="m 564.66218,956.40059 c 0.0313,-0.18799 0.047,-0.37599 0.047,-0.564 -2e-5,-0.21932 -2e-5,-0.43865 0,-0.658 -2e-5,-1.87998 -0.26636,-3.65032 -0.799,-5.311 -0.50135,-1.66065 -1.25335,-3.11764 -2.256,-4.371 -1.00269,-1.25331 -2.24035,-2.24031 -3.713,-2.961 -1.47268,-0.75197 -3.16468,-1.12797 -5.076,-1.128 -1.84868,3e-5 -3.54067,0.34469 -5.076,1.034 -1.504,0.65803 -2.80434,1.59802 -3.901,2.82 -1.09667,1.19069 -1.94267,2.60069 -2.538,4.23 -0.59533,1.62935 -0.893,3.38402 -0.893,5.264 0,1.94268 0.282,3.72868 0.846,5.358 0.59533,1.62934 1.42567,3.03934 2.491,4.23 1.06533,1.15934 2.36566,2.068 3.901,2.726 1.53533,0.658 3.25866,0.987 5.17,0.987 5.79665,0 9.58798,-2.83566 11.374,-8.507 l -5.875,0 c -0.15668,0.53268 -0.43868,1.00267 -0.846,1.41 -0.37602,0.40734 -0.81468,0.75201 -1.316,1.034 -0.47001,0.28201 -0.98701,0.50134 -1.551,0.658 -0.56401,0.12534 -1.08101,0.18801 -1.551,0.188 -2.00534,10e-6 -3.49367,-0.56399 -4.465,-1.692 -0.94001,-1.12799 -1.44134,-2.71032 -1.504,-4.747 l 17.531,0 m -6.674,-4.371 -10.857,0 c 0.0627,-1.66065 0.59533,-2.97665 1.598,-3.948 1.03399,-0.97131 2.34999,-1.45698 3.948,-1.457 1.72332,2e-5 2.96099,0.50135 3.713,1.504 0.78332,0.97135 1.31598,2.27168 1.598,3.901"
             inkscape:connector-curvature="0" />
          <path
             id="path3224"
             style="font-size:47px;font-variant:normal;font-weight:bold;font-stretch:normal;text-align:end;letter-spacing:1.70000005px;text-anchor:end;fill:#ffffff;font-family:KyrillaSansSerif;-inkscape-font-specification:KyrillaSansSerif Bold"
             d="m 593.84536,966.88159 0,-33.558 -6.674,0 0,33.558 6.674,0"
             inkscape:connector-curvature="0" />
          <path
             id="path3226"
             style="font-size:47px;font-variant:normal;font-weight:bold;font-stretch:normal;text-align:end;letter-spacing:1.70000005px;text-anchor:end;fill:#ffffff;font-family:KyrillaSansSerif;-inkscape-font-specification:KyrillaSansSerif Bold"
             d="m 607.66255,938.82259 0,-5.499 -6.674,0 0,5.499 6.674,0 m 0,28.059 0,-24.299 -6.674,0 0,24.299 6.674,0"
             inkscape:connector-curvature="0" />
          <path
             id="path3228"
             style="font-size:47px;font-variant:normal;font-weight:bold;font-stretch:normal;text-align:end;letter-spacing:1.70000005px;text-anchor:end;fill:#ffffff;font-family:KyrillaSansSerif;-inkscape-font-specification:KyrillaSansSerif Bold"
             d="m 641.83073,955.27259 c -3e-5,-2.69465 -0.64236,-5.02898 -1.927,-7.003 -1.28469,-1.97398 -3.19602,-3.43098 -5.734,-4.371 -0.50135,-0.18798 -1.06535,-0.36031 -1.692,-0.517 -0.62668,-0.15664 -1.20635,-0.23497 -1.739,-0.235 l -7.755,0 0,-10.011 -7.05,0 0,33.746 14.805,0 c 0.62665,0 1.26898,-0.0627 1.927,-0.188 0.65798,-0.15666 1.26898,-0.34466 1.833,-0.564 2.44398,-0.90866 4.27698,-2.28733 5.499,-4.136 1.22197,-1.84866 1.83297,-4.08899 1.833,-6.721 m -7.05,-0.141 c -2e-5,0.75201 -0.14102,1.48835 -0.423,2.209 -0.25069,0.72068 -0.61102,1.36301 -1.081,1.927 -0.47002,0.53268 -1.04968,0.97134 -1.739,1.316 -0.65802,0.31334 -1.37868,0.47001 -2.162,0.47 l -6.392,0 0,-12.361 6.392,0 c 0.81465,2e-5 1.55098,0.20369 2.209,0.611 0.65798,0.40735 1.22198,0.92435 1.692,1.551 0.46998,0.62668 0.83031,1.31602 1.081,2.068 0.28198,0.75202 0.42298,1.48835 0.423,2.209"
             inkscape:connector-curvature="0" />
          <path
             id="path3230"
             style="font-size:47px;font-variant:normal;font-weight:bold;font-stretch:normal;text-align:end;letter-spacing:1.70000005px;text-anchor:end;fill:#ffffff;font-family:KyrillaSansSerif;-inkscape-font-specification:KyrillaSansSerif Bold"
             d="m 661.25046,947.14159 0,-5.264 -13.066,0 0,25.004 6.486,0 0,-19.74 6.58,0"
             inkscape:connector-curvature="0" />
          <path
             id="path3232"
             style="font-size:47px;font-variant:normal;font-weight:bold;font-stretch:normal;text-align:end;letter-spacing:1.70000005px;text-anchor:end;fill:#ffffff;font-family:KyrillaSansSerif;-inkscape-font-specification:KyrillaSansSerif Bold"
             d="m 689.05751,956.40059 c 0.0313,-0.18799 0.047,-0.37599 0.047,-0.564 -3e-5,-0.21932 -3e-5,-0.43865 0,-0.658 -3e-5,-1.87998 -0.26636,-3.65032 -0.799,-5.311 -0.50136,-1.66065 -1.25336,-3.11764 -2.256,-4.371 -1.00269,-1.25331 -2.24036,-2.24031 -3.713,-2.961 -1.47269,-0.75197 -3.16468,-1.12797 -5.076,-1.128 -1.84868,3e-5 -3.54068,0.34469 -5.076,1.034 -1.50401,0.65803 -2.80434,1.59802 -3.901,2.82 -1.09667,1.19069 -1.94267,2.60069 -2.538,4.23 -0.59534,1.62935 -0.893,3.38402 -0.893,5.264 0,1.94268 0.282,3.72868 0.846,5.358 0.59533,1.62934 1.42566,3.03934 2.491,4.23 1.06533,1.15934 2.36566,2.068 3.901,2.726 1.53532,0.658 3.25865,0.987 5.17,0.987 5.79664,0 9.58797,-2.83566 11.374,-8.507 l -5.875,0 c -0.15669,0.53268 -0.43869,1.00267 -0.846,1.41 -0.37602,0.40734 -0.81469,0.75201 -1.316,1.034 -0.47002,0.28201 -0.98702,0.50134 -1.551,0.658 -0.56402,0.12534 -1.08102,0.18801 -1.551,0.188 -2.00535,10e-6 -3.49368,-0.56399 -4.465,-1.692 -0.94001,-1.12799 -1.44134,-2.71032 -1.504,-4.747 l 17.531,0 m -6.674,-4.371 -10.857,0 c 0.0627,-1.66065 0.59532,-2.97665 1.598,-3.948 1.03399,-0.97131 2.34999,-1.45698 3.948,-1.457 1.72332,2e-5 2.96098,0.50135 3.713,1.504 0.78331,0.97135 1.31598,2.27168 1.598,3.901"
             inkscape:connector-curvature="0" />
        </g>
      </g>
      <g
         id="g3795"
         transform="translate(-1.2250977,-0.78465271)">
        <rect
           y="218.80623"
           x="741.68561"
           height="88"
           width="88"
           id="rect3143"
           style="opacity:0.7;fill:#000000;fill-opacity:1;stroke:none" />
        <path
           style="fill:#ffffff"
           d="m 783.20082,280.1372 c -5.28308,-0.49039 -10.47569,-2.6427 -14.61739,-6.05886 -1.07179,-0.88405 -2.81257,-2.61339 -3.74006,-3.71548 -3.4534,-4.1035 -5.55567,-8.99991 -6.12916,-14.27554 -0.14654,-1.34814 -0.16868,-4.273 -0.042,-5.54215 0.53478,-5.35453 2.50957,-10.18913 5.8865,-14.4111 1.43957,-1.79982 3.83968,-4.08565 5.66614,-5.39637 2.96507,-2.12783 6.24047,-3.54056 9.85297,-4.24971 1.91977,-0.37688 2.9335,-0.46195 5.5062,-0.46214 2.49682,-1.8e-4 3.24281,0.054 5.13637,0.3733 4.01147,0.67634 7.85651,2.33537 11.16321,4.81662 6.16045,4.62259 9.82747,10.96686 10.7518,18.60162 0.17516,1.44677 0.1983,4.92259 0.0419,6.2869 -0.73495,6.40835 -3.17506,11.59992 -7.45602,15.86351 -2.32994,2.3205 -4.62782,3.97403 -7.47428,5.37836 -2.86365,1.41286 -5.54399,2.2366 -8.71128,2.6773 -1.09338,0.15215 -4.67026,0.22186 -5.83491,0.11369 z m 5.53113,-5.12445 c 4.91424,-0.73741 9.1947,-2.87054 12.7836,-6.37057 2.47829,-2.41693 4.22097,-5.14694 5.22301,-8.18223 0.7334,-2.22157 1.05073,-4.06348 1.13271,-6.57456 0.22194,-6.79965 -2.40037,-12.9445 -7.44146,-17.43738 -3.26874,-2.9133 -6.97796,-4.6635 -11.3119,-5.33752 -1.52156,-0.23664 -5.48955,-0.2166 -7.02215,0.0354 -5.50348,0.90513 -9.94822,3.52522 -13.59604,8.01459 -1.4309,1.76101 -2.94663,4.41602 -3.70804,6.49514 -2.4188,6.6049 -1.47114,13.89597 2.57042,19.77629 1.65262,2.40449 4.10164,4.77199 6.59324,6.37382 0.97102,0.62423 2.98228,1.61446 4.14884,2.04264 1.70753,0.62671 3.61373,1.06949 5.50755,1.27937 0.95624,0.10585 4.12134,0.0347 5.12022,-0.11494 z m -17.57081,-7.7821 c 0,-0.25806 1.48287,-26.91085 1.5255,-27.41894 l 0.05,-0.59581 2.00645,0 c 1.10355,0 2.00712,0.01 2.00794,0.0205 8.2e-4,0.0114 0.18418,4.41677 0.4075,9.78993 0.22331,5.37317 0.4204,9.78379 0.43799,9.80138 0.0178,0.0165 1.65557,-1.37669 3.63996,-3.09844 l 3.608,-3.13041 0.0412,3.08544 0.0409,3.08547 3.1229,-3.09969 3.12293,-3.09967 0.0412,2.96327 0.0412,2.9633 3.73928,-3.14947 c 2.05658,-1.73219 3.80399,-3.18715 3.88308,-3.23326 0.13649,-0.0796 0.14376,0.30316 0.14376,7.56202 l 0,7.64582 -13.92983,0 c -10.1753,0 -13.92986,-0.0246 -13.92986,-0.0916 z m 18.96314,-14.95722 c -1.0832,-0.10439 -1.73902,-0.28258 -2.69109,-0.73107 -1.29678,-0.61083 -3.35703,-1.06244 -4.86334,-1.06603 -1.41691,-0.004 -2.81086,0.34946 -4.07561,1.03163 l -0.67965,0.3666 0.13164,-0.3095 c 0.8775,-2.06304 1.27758,-3.59529 1.42661,-5.46366 0.0897,-1.12508 0.0118,-2.36836 -0.20421,-3.25126 -0.20864,-0.85329 -0.76757,-1.96411 -1.25695,-2.49789 -0.23506,-0.2564 -0.39763,-0.48458 -0.36125,-0.50706 0.11626,-0.0718 2.16992,-0.4487 3.00742,-0.55185 0.48655,-0.06 1.27222,-0.0819 1.97236,-0.0552 1.54793,0.059 2.42606,0.28768 3.99896,1.04106 1.47707,0.70746 2.29634,0.9641 3.41651,1.07024 2.09553,0.19854 3.75348,-0.20022 7.74827,-1.86361 1.1274,-0.46943 1.54107,-0.60748 1.63773,-0.54652 0.21392,0.13493 0.59276,0.97265 0.72796,1.60966 0.0939,0.44229 0.1167,0.89806 0.0879,1.74875 -0.0355,1.04507 -0.0695,1.25225 -0.37155,2.26001 -0.39221,1.30875 -0.50864,1.90221 -0.50864,2.59306 0,0.71379 0.20345,1.79883 0.52079,2.7774 l 0.27058,0.83443 -1.11478,0.0104 c -1.30132,0.0123 -1.99053,0.14616 -3.93274,0.76297 -1.69379,0.53782 -2.14558,0.64747 -3.06841,0.74465 -0.85167,0.0897 -0.80739,0.0899 -1.81851,-0.008 z"
           id="path3979"
           inkscape:connector-curvature="0" />
        <g
           style="font-size:13.67098045px;font-style:normal;font-weight:normal;line-height:125%;letter-spacing:0px;word-spacing:0px;fill:#ffffff;fill-opacity:1;stroke:none;font-family:Sans"
           id="text3999"
           transform="translate(712.3332,185.36679)">
          <path
             d="m 44.963536,106.87656 6.525727,0 0,-2.01351 -4.233231,0 0,-7.059434 -2.304625,0 0.01213,9.072944"
             style="letter-spacing:1.31843507px;fill:#ffffff"
             id="path3235"
             inkscape:connector-curvature="0" />
          <path
             d="m 53.350498,99.623057 2.122681,0 0,-1.819441 -2.13481,0 0.01213,1.819441 m -0.01213,7.253503 2.13481,0 0,-6.68341 -2.13481,0 0,6.68341"
             style="letter-spacing:1.31843507px;fill:#ffffff"
             id="path3237"
             inkscape:connector-curvature="0" />
          <path
             d="m 60.913405,107.16767 c 0.873327,0 1.59706,-0.25472 2.171199,-0.76416 0.582215,-0.50945 0.94206,-1.27765 1.079535,-2.30463 l -2.062033,0 c -0.1213,0.88142 -0.521577,1.32213 -1.20083,1.32213 -0.218337,0 -0.408367,-0.0526 -0.570092,-0.15769 -0.153644,-0.10512 -0.278983,-0.24259 -0.376018,-0.4124 -0.09704,-0.1779 -0.169816,-0.37602 -0.218332,-0.59435 -0.04852,-0.22642 -0.07278,-0.45688 -0.07278,-0.69139 -2e-6,-0.24259 0.02426,-0.4771 0.07278,-0.70352 0.04852,-0.22641 0.121293,-0.42857 0.218332,-0.60648 0.105121,-0.18598 0.238546,-0.33154 0.400277,-0.43666 0.161725,-0.11321 0.355799,-0.16981 0.582221,-0.16982 0.30728,10e-6 0.549872,0.0849 0.727777,0.25472 0.185982,0.16982 0.311322,0.45689 0.376017,0.8612 l 2.074163,0 c -0.03235,-0.50135 -0.145562,-0.93397 -0.339629,-1.29786 -0.185994,-0.36389 -0.424542,-0.65904 -0.715647,-0.88546 -0.291116,-0.2345 -0.618615,-0.40432 -0.982498,-0.50945 -0.363892,-0.113201 -0.73991,-0.169806 -1.128053,-0.169812 -0.541792,6e-6 -1.022933,0.09704 -1.443423,0.291112 -0.420495,0.18599 -0.776296,0.44476 -1.067405,0.77629 -0.291111,0.33155 -0.513487,0.72374 -0.667128,1.17657 -0.153642,0.45285 -0.230463,0.94612 -0.230463,1.47982 0,0.50944 0.08086,0.9825 0.242592,1.41916 0.161728,0.42858 0.388147,0.80055 0.679258,1.11592 0.299196,0.31537 0.654997,0.56201 1.067405,0.73991 0.420491,0.1779 0.881415,0.26685 1.382775,0.26685"
             style="letter-spacing:1.31843507px;fill:#ffffff"
             id="path3239"
             inkscape:connector-curvature="0" />
          <path
             d="m 72.362714,104.17166 c 0.0081,-0.15364 0.01212,-0.26281 0.01213,-0.3275 -7e-6,-0.0728 -7e-6,-0.13747 0,-0.19407 -7e-6,-0.49327 -0.06874,-0.96633 -0.206203,-1.41917 -0.137475,-0.45283 -0.343679,-0.85311 -0.61861,-1.20083 -0.274943,-0.34771 -0.614572,-0.62265 -1.018887,-0.82481 -0.404324,-0.20216 -0.873335,-0.303236 -1.407034,-0.303242 -0.509446,6e-6 -0.974414,0.09704 -1.394904,0.291112 -0.420495,0.18599 -0.78034,0.44476 -1.079535,0.77629 -0.291111,0.32346 -0.521574,0.70757 -0.691388,1.15232 -0.161728,0.43666 -0.242592,0.90972 -0.242592,1.41916 0,0.52562 0.07682,1.0108 0.230463,1.45555 0.161727,0.44475 0.388146,0.82886 0.679258,1.15231 0.299195,0.32346 0.65904,0.57414 1.079534,0.75204 0.420491,0.1779 0.893545,0.26685 1.419164,0.26685 0.792463,0 1.451505,-0.20216 1.977126,-0.60648 0.533696,-0.41241 0.942059,-1.07549 1.22509,-1.98925 l -1.928607,0 c -0.08896,0.28302 -0.254727,0.49731 -0.497314,0.64286 -0.242596,0.13747 -0.481145,0.20621 -0.715647,0.20621 -0.41241,0 -0.727779,-0.10512 -0.946109,-0.31537 -0.210249,-0.21025 -0.335588,-0.52157 -0.376018,-0.93398 l 4.500084,0 m -3.287123,-2.52296 c 0.339625,10e-6 0.590303,0.0849 0.752035,0.25472 0.16981,0.16173 0.295149,0.40433 0.376018,0.72778 l -2.341014,0 c 0.06469,-0.30728 0.202158,-0.54583 0.412407,-0.71565 0.21833,-0.17789 0.485181,-0.26684 0.800554,-0.26685"
             style="letter-spacing:1.31843507px;fill:#ffffff"
             id="path3241"
             inkscape:connector-curvature="0" />
          <path
             d="m 76.534259,103.38323 0,-3.37203 -2.086292,0 0,6.86536 2.14694,0 2.001385,-3.40842 0,3.40842 2.074162,0 0,-6.86536 -2.14694,0 -1.989255,3.37203"
             style="letter-spacing:1.31843507px;fill:#ffffff"
             id="path3243"
             inkscape:connector-curvature="0" />
          <path
             d="m 86.213971,107.16767 c 0.873327,0 1.597059,-0.25472 2.171199,-0.76416 0.582215,-0.50945 0.942059,-1.27765 1.079535,-2.30463 l -2.062033,0 c -0.121301,0.88142 -0.521577,1.32213 -1.200831,1.32213 -0.218336,0 -0.408366,-0.0526 -0.570091,-0.15769 -0.153645,-0.10512 -0.278984,-0.24259 -0.376018,-0.4124 -0.09704,-0.1779 -0.169817,-0.37602 -0.218333,-0.59435 -0.04852,-0.22642 -0.07278,-0.45688 -0.07278,-0.69139 -3e-6,-0.24259 0.02426,-0.4771 0.07278,-0.70352 0.04852,-0.22641 0.121294,-0.42857 0.218333,-0.60648 0.105121,-0.18598 0.238546,-0.33154 0.400277,-0.43666 0.161725,-0.11321 0.355798,-0.16981 0.582221,-0.16982 0.307279,10e-6 0.549871,0.0849 0.727776,0.25472 0.185983,0.16982 0.311322,0.45689 0.376018,0.8612 l 2.074162,0 c -0.03235,-0.50135 -0.145561,-0.93397 -0.339628,-1.29786 -0.185994,-0.36389 -0.424543,-0.65904 -0.715647,-0.88546 -0.291116,-0.2345 -0.618615,-0.40432 -0.982498,-0.50945 -0.363893,-0.113201 -0.73991,-0.169806 -1.128053,-0.169812 -0.541792,6e-6 -1.022933,0.09704 -1.443423,0.291112 -0.420495,0.18599 -0.776296,0.44476 -1.067405,0.77629 -0.291112,0.33155 -0.513488,0.72374 -0.667129,1.17657 -0.153642,0.45285 -0.230462,0.94612 -0.230462,1.47982 0,0.50944 0.08086,0.9825 0.242592,1.41916 0.161727,0.42858 0.388146,0.80055 0.679258,1.11592 0.299195,0.31537 0.654997,0.56201 1.067405,0.73991 0.42049,0.1779 0.881415,0.26685 1.382775,0.26685"
             style="letter-spacing:1.31843507px;fill:#ffffff"
             id="path3245"
             inkscape:connector-curvature="0" />
          <path
             d="m 91.380144,99.623057 2.122681,0 0,-1.819441 -2.13481,0 0.01213,1.819441 m -0.01213,7.253503 2.13481,0 0,-6.68341 -2.13481,0 0,6.68341"
             style="letter-spacing:1.31843507px;fill:#ffffff"
             id="path3247"
             inkscape:connector-curvature="0" />
          <path
             d="m 99.925549,106.91295 2.243981,0 c -0.16983,-0.2992 -0.27495,-0.59435 -0.31537,-0.88546 -0.0404,-0.2992 -0.0607,-0.55392 -0.0606,-0.76417 l 0,-3.31138 c -1e-5,-0.44475 -0.10109,-0.80055 -0.30324,-1.0674 -0.19408,-0.27494 -0.44072,-0.48518 -0.73991,-0.63074 -0.29111,-0.14555 -0.61053,-0.23855 -0.958237,-0.278985 -0.339633,-0.04851 -0.655002,-0.07277 -0.946109,-0.07278 -0.355805,6e-6 -0.715649,0.03639 -1.079534,0.109165 -0.363891,0.0728 -0.695433,0.20621 -0.994628,0.40028 -0.291112,0.19408 -0.537747,0.46093 -0.739906,0.80055 -0.20216,0.33155 -0.31537,0.75609 -0.339629,1.27361 l 2.110551,0 c 0.03234,-0.38814 0.12938,-0.65095 0.291111,-0.78842 0.161725,-0.13746 0.384101,-0.2062 0.667128,-0.2062 0.30728,0 0.537742,0.0445 0.691388,0.13342 0.153637,0.0809 0.230458,0.26686 0.230462,0.55796 -4e-6,0.11322 -0.04044,0.20621 -0.121296,0.27898 -0.07278,0.0647 -0.202164,0.11726 -0.388147,0.15769 -0.185991,0.0485 -0.404324,0.0849 -0.654999,0.10917 -0.242595,0.0162 -0.493273,0.0404 -0.752035,0.0728 -0.266854,0.0404 -0.533705,0.097 -0.800554,0.16982 -0.266853,0.0728 -0.509445,0.18599 -0.727777,0.33963 -0.218333,0.15364 -0.396234,0.35984 -0.533702,0.61861 -0.137469,0.25876 -0.206204,0.59435 -0.206203,1.00675 -10e-7,0.36389 0.06065,0.68331 0.181944,0.95824 0.129382,0.26685 0.299196,0.48923 0.509443,0.66713 0.218332,0.1779 0.46901,0.30728 0.752035,0.38815 0.283023,0.0889 0.582219,0.13342 0.897591,0.13342 0.339626,0 0.679255,-0.0445 1.018887,-0.13342 0.347711,-0.089 0.663081,-0.24259 0.946109,-0.46093 0.01617,0.0647 0.03234,0.12939 0.04852,0.19408 0.02425,0.0647 0.04851,0.14151 0.07278,0.23046 m -0.254722,-2.97175 0,0.3275 c -4e-6,0.42049 -0.093,0.73182 -0.278981,0.93397 -0.185991,0.19408 -0.48923,0.29112 -0.90972,0.29112 -0.266854,0 -0.4771,-0.0445 -0.630739,-0.13343 -0.153644,-0.0889 -0.230465,-0.25876 -0.230463,-0.50944 -2e-6,-0.23451 0.07278,-0.40028 0.218333,-0.49732 0.153639,-0.097 0.359842,-0.16577 0.61861,-0.2062 0.202157,-0.0404 0.40836,-0.0647 0.61861,-0.0728 0.210242,-0.0162 0.412402,-0.0606 0.60648,-0.13342 l -0.01213,0"
             style="letter-spacing:1.31843507px;fill:#ffffff"
             id="path3249"
             inkscape:connector-curvature="0" />
          <path
             d="m 45.515697,112.83487 0,-0.22624 -0.980389,0 0,4.25221 1.020997,0 0,-1.28204 c 0.112153,0.10055 0.237844,0.17597 0.377072,0.22624 0.143092,0.0541 0.28812,0.0812 0.435084,0.0812 0.235909,0 0.442815,-0.0483 0.620719,-0.14503 0.177898,-0.0928 0.324859,-0.21464 0.440884,-0.36547 0.119887,-0.1547 0.208837,-0.33066 0.266852,-0.5279 0.05801,-0.19724 0.08701,-0.40028 0.08702,-0.60912 -3e-6,-0.22044 -0.02901,-0.43315 -0.08702,-0.63812 -0.05802,-0.20497 -0.146965,-0.38674 -0.266852,-0.54531 -0.116025,-0.15856 -0.266854,-0.28618 -0.452486,-0.38287 -0.181771,-0.0967 -0.40028,-0.14502 -0.655526,-0.14503 -0.154699,1e-5 -0.30166,0.0251 -0.440885,0.0754 -0.135361,0.0503 -0.259118,0.12762 -0.371271,0.23204 l 0.0058,0 m 0.62652,0.5105 c 0.112153,0 0.206904,0.0251 0.284255,0.0754 0.08121,0.0464 0.146959,0.11023 0.197238,0.19144 0.05027,0.0812 0.08701,0.17404 0.110221,0.27845 0.0232,0.10443 0.0348,0.21271 0.03481,0.32487 -2e-6,0.11602 -0.0116,0.22624 -0.03481,0.33066 -0.01934,0.10442 -0.05415,0.19531 -0.10442,0.27265 -0.05028,0.0773 -0.114091,0.13923 -0.191437,0.18564 -0.07735,0.0464 -0.174035,0.0696 -0.290056,0.0696 -0.116024,0 -0.214643,-0.0232 -0.295857,-0.0696 -0.07735,-0.0464 -0.141161,-0.10829 -0.191436,-0.18564 -0.04641,-0.0812 -0.08122,-0.1721 -0.10442,-0.27265 -0.02321,-0.10442 -0.03481,-0.21464 -0.03481,-0.33066 -10e-7,-0.11602 0.0097,-0.22624 0.029,-0.33067 0.0232,-0.10828 0.05994,-0.2011 0.110222,-0.27845 0.05027,-0.0812 0.114087,-0.14503 0.191436,-0.19144 0.07735,-0.0503 0.174032,-0.0754 0.290056,-0.0754 l 0,0.006"
             style="font-size:5.80111408px;font-variant:normal;font-weight:900;font-stretch:normal;fill:#ffffff;font-family:KyrillaSansSerif-Black;-inkscape-font-specification:KyrillaSansSerif-Black Heavy"
             id="path3251"
             inkscape:connector-curvature="0" />
          <path
             d="m 49.149098,113.36277 0.812156,0 0,-0.84116 -1.804147,0 0,3.28343 0.991991,0 0,-2.44227"
             style="font-size:5.80111408px;font-variant:normal;font-weight:900;font-stretch:normal;fill:#ffffff;font-family:KyrillaSansSerif-Black;-inkscape-font-specification:KyrillaSansSerif-Black Heavy"
             id="path3253"
             inkscape:connector-curvature="0" />
          <path
             d="m 51.664515,115.88626 c 0.251379,0 0.477623,-0.0406 0.67873,-0.12183 0.20497,-0.0812 0.379003,-0.1953 0.5221,-0.34226 0.146959,-0.15083 0.259114,-0.32873 0.336465,-0.5337 0.07735,-0.20498 0.116019,-0.43122 0.116022,-0.67873 -3e-6,-0.24752 -0.03868,-0.47376 -0.116022,-0.67873 -0.07735,-0.20884 -0.187572,-0.38674 -0.330663,-0.53371 -0.143097,-0.14696 -0.317131,-0.26104 -0.522101,-0.34226 -0.204975,-0.0851 -0.433152,-0.12762 -0.684531,-0.12763 -0.251383,1e-5 -0.47956,0.0425 -0.684532,0.12763 -0.201106,0.0812 -0.373205,0.1953 -0.516299,0.34226 -0.143094,0.14697 -0.253315,0.32487 -0.330663,0.53371 -0.07735,0.20497 -0.116023,0.43121 -0.116023,0.67873 0,0.24751 0.03867,0.47375 0.116023,0.67873 0.07735,0.20497 0.187569,0.38287 0.330663,0.5337 0.143094,0.14696 0.315193,0.26105 0.516299,0.34226 0.204972,0.0812 0.433149,0.12183 0.684532,0.12183 m 0,-2.54669 c 0.119888,0 0.22044,0.0232 0.301658,0.0696 0.08121,0.0464 0.146959,0.11023 0.197238,0.19144 0.05027,0.0773 0.08508,0.16823 0.10442,0.27265 0.0232,0.10442 0.0348,0.21658 0.03481,0.33647 -2e-6,0.11602 -0.0116,0.22817 -0.03481,0.33646 -0.02321,0.10442 -0.05995,0.19531 -0.110222,0.27265 -0.05028,0.0773 -0.116024,0.13923 -0.197237,0.18564 -0.08122,0.0464 -0.179837,0.0696 -0.295857,0.0696 -0.116024,0 -0.214643,-0.0232 -0.295857,-0.0696 -0.08122,-0.0464 -0.146963,-0.10829 -0.197238,-0.18564 -0.05028,-0.0773 -0.08702,-0.16823 -0.110221,-0.27265 -0.01934,-0.10829 -0.02901,-0.22044 -0.02901,-0.33646 -1e-6,-0.11602 0.0097,-0.22625 0.02901,-0.33067 0.0232,-0.10828 0.05994,-0.2011 0.110221,-0.27845 0.05027,-0.0812 0.116021,-0.14503 0.197238,-0.19144 0.08121,-0.0464 0.179833,-0.0696 0.295857,-0.0696"
             style="font-size:5.80111408px;font-variant:normal;font-weight:900;font-stretch:normal;fill:#ffffff;font-family:KyrillaSansSerif-Black;-inkscape-font-specification:KyrillaSansSerif-Black Heavy"
             id="path3255"
             inkscape:connector-curvature="0" />
          <path
             d="m 55.808413,112.86968 c -0.112157,-0.11602 -0.243649,-0.2011 -0.394475,-0.25525 -0.150831,-0.058 -0.303594,-0.087 -0.458288,-0.087 -0.239781,1e-5 -0.448621,0.0483 -0.626521,0.14503 -0.177901,0.0928 -0.326796,0.21658 -0.446685,0.37127 -0.119891,0.15083 -0.208841,0.3268 -0.266852,0.5279 -0.05801,0.19724 -0.08702,0.40028 -0.08702,0.60912 -10e-7,0.21271 0.029,0.42155 0.08702,0.62652 0.05801,0.20111 0.145028,0.38287 0.26105,0.54531 0.11989,0.15856 0.270718,0.28618 0.452487,0.38287 0.181767,0.10055 0.396408,0.15083 0.643924,0.15083 0.154695,0 0.30359,-0.0232 0.446686,-0.0696 0.143092,-0.0464 0.270716,-0.12375 0.382873,-0.23204 l 0,0.22044 0.974587,0 0,-4.33923 -1.020996,0 c -2e-6,0 -2e-6,0.0561 0,0.16823 -2e-6,0.11216 0.0019,0.24559 0.0058,0.40028 0.0039,0.1547 0.0097,0.31133 0.0174,0.46989 0.0077,0.1547 0.0174,0.27652 0.02901,0.36547 m -0.632321,0.47569 c 0.11602,0 0.212706,0.0232 0.290056,0.0696 0.07735,0.0464 0.139224,0.10829 0.185635,0.18564 0.05027,0.0773 0.08508,0.16823 0.10442,0.27265 0.0232,0.10056 0.0348,0.20884 0.03481,0.32486 -2e-6,0.11603 -0.01161,0.22818 -0.03481,0.33647 -0.01934,0.10442 -0.05221,0.19724 -0.09862,0.27845 -0.04641,0.0812 -0.110223,0.14503 -0.191436,0.19144 -0.07735,0.0464 -0.174036,0.0696 -0.290056,0.0696 -0.108289,0 -0.203041,-0.0232 -0.284255,-0.0696 -0.07735,-0.0503 -0.143095,-0.11602 -0.197238,-0.19724 -0.05028,-0.0812 -0.08895,-0.17403 -0.116022,-0.27845 -0.02321,-0.10442 -0.03481,-0.21271 -0.03481,-0.32487 -2e-6,-0.11602 0.0116,-0.22624 0.03481,-0.33066 0.0232,-0.10442 0.05801,-0.1953 0.10442,-0.27265 0.05027,-0.0812 0.116021,-0.14503 0.197238,-0.19144 0.08121,-0.0464 0.179833,-0.0696 0.295857,-0.0696 l 0,0.006"
             style="font-size:5.80111408px;font-variant:normal;font-weight:900;font-stretch:normal;fill:#ffffff;font-family:KyrillaSansSerif-Black;-inkscape-font-specification:KyrillaSansSerif-Black Heavy"
             id="path3257"
             inkscape:connector-curvature="0" />
          <path
             d="m 59.238776,115.53819 0,0.26685 0.974587,0 0,-3.19641 -1.020996,0 0,1.67072 c -2e-6,0.11602 -0.0077,0.22238 -0.0232,0.31906 -0.0116,0.0928 -0.03674,0.1721 -0.07541,0.23785 -0.03868,0.0657 -0.09475,0.11795 -0.168232,0.15663 -0.06961,0.0348 -0.1605,0.0522 -0.272653,0.0522 -0.08895,0 -0.162432,-0.0155 -0.220442,-0.0464 -0.05801,-0.0309 -0.102488,-0.0735 -0.133426,-0.12763 -0.03094,-0.058 -0.05221,-0.12569 -0.06381,-0.20304 -0.0116,-0.0812 -0.0174,-0.17016 -0.0174,-0.26685 l 0,-1.79254 -1.015195,0 0,1.94337 c 0,0.20498 0.01934,0.39061 0.05801,0.55691 0.03867,0.16243 0.10442,0.30166 0.197238,0.41768 0.09282,0.11602 0.21464,0.20497 0.36547,0.26685 0.154695,0.0619 0.346132,0.0928 0.57431,0.0928 0.158563,0 0.309391,-0.0309 0.452487,-0.0928 0.14696,-0.058 0.276518,-0.14309 0.388675,-0.25525"
             style="font-size:5.80111408px;font-variant:normal;font-weight:900;font-stretch:normal;fill:#ffffff;font-family:KyrillaSansSerif-Black;-inkscape-font-specification:KyrillaSansSerif-Black Heavy"
             id="path3259"
             inkscape:connector-curvature="0" />
          <path
             d="m 62.166887,115.94427 c 0.417678,0 0.763811,-0.12182 1.0384,-0.36547 0.27845,-0.24365 0.450549,-0.61105 0.516299,-1.10221 l -0.98619,0 c -0.05801,0.42155 -0.24945,0.63232 -0.57431,0.63232 -0.104422,0 -0.195306,-0.0251 -0.272652,-0.0754 -0.07348,-0.0503 -0.133427,-0.11602 -0.179835,-0.19723 -0.04641,-0.0851 -0.08122,-0.17984 -0.10442,-0.28426 -0.02321,-0.10828 -0.03481,-0.21851 -0.03481,-0.33066 -1e-6,-0.11602 0.0116,-0.22818 0.03481,-0.33647 0.0232,-0.10828 0.05801,-0.20497 0.10442,-0.29005 0.05027,-0.0889 0.114087,-0.15856 0.191437,-0.20884 0.07735,-0.0541 0.170164,-0.0812 0.278453,-0.0812 0.14696,0 0.262982,0.0406 0.348067,0.12183 0.08895,0.0812 0.148893,0.21851 0.179835,0.41187 l 0.99199,0 c -0.01547,-0.23977 -0.06962,-0.44668 -0.162431,-0.62071 -0.08895,-0.17404 -0.203042,-0.3152 -0.342266,-0.42349 -0.139229,-0.11215 -0.295859,-0.19336 -0.46989,-0.24364 -0.174036,-0.0541 -0.35387,-0.0812 -0.539504,-0.0812 -0.259117,0 -0.489228,0.0464 -0.690332,0.13923 -0.201106,0.0889 -0.371272,0.21271 -0.510498,0.37127 -0.139227,0.15857 -0.245581,0.34614 -0.319061,0.56271 -0.07348,0.21657 -0.110222,0.45249 -0.110222,0.70773 0,0.24365 0.03867,0.46989 0.116023,0.67873 0.07735,0.20498 0.185635,0.38288 0.324862,0.53371 0.143093,0.15083 0.313259,0.26878 0.510498,0.35386 0.201104,0.0851 0.421546,0.12763 0.661327,0.12763"
             style="font-size:5.80111408px;font-variant:normal;font-weight:900;font-stretch:normal;fill:#ffffff;font-family:KyrillaSansSerif-Black;-inkscape-font-specification:KyrillaSansSerif-Black Heavy"
             id="path3261"
             inkscape:connector-curvature="0" />
          <path
             d="m 65.497997,115.94427 c 0.417678,0 0.763811,-0.12182 1.0384,-0.36547 0.27845,-0.24365 0.450549,-0.61105 0.516299,-1.10221 l -0.98619,0 c -0.05801,0.42155 -0.24945,0.63232 -0.57431,0.63232 -0.104422,0 -0.195306,-0.0251 -0.272652,-0.0754 -0.07348,-0.0503 -0.133427,-0.11602 -0.179835,-0.19723 -0.04641,-0.0851 -0.08122,-0.17984 -0.10442,-0.28426 -0.02321,-0.10828 -0.03481,-0.21851 -0.03481,-0.33066 -10e-7,-0.11602 0.0116,-0.22818 0.03481,-0.33647 0.0232,-0.10828 0.05801,-0.20497 0.10442,-0.29005 0.05027,-0.0889 0.114087,-0.15856 0.191437,-0.20884 0.07735,-0.0541 0.170164,-0.0812 0.278453,-0.0812 0.14696,0 0.262982,0.0406 0.348067,0.12183 0.08895,0.0812 0.148893,0.21851 0.179835,0.41187 l 0.99199,0 c -0.01547,-0.23977 -0.06962,-0.44668 -0.162431,-0.62071 -0.08895,-0.17404 -0.203042,-0.3152 -0.342266,-0.42349 -0.139229,-0.11215 -0.295859,-0.19336 -0.46989,-0.24364 -0.174036,-0.0541 -0.35387,-0.0812 -0.539504,-0.0812 -0.259117,0 -0.489228,0.0464 -0.690332,0.13923 -0.201106,0.0889 -0.371272,0.21271 -0.510498,0.37127 -0.139227,0.15857 -0.245581,0.34614 -0.319061,0.56271 -0.07348,0.21657 -0.110222,0.45249 -0.110222,0.70773 0,0.24365 0.03867,0.46989 0.116023,0.67873 0.07735,0.20498 0.185635,0.38288 0.324862,0.53371 0.143093,0.15083 0.313259,0.26878 0.510498,0.35386 0.201104,0.0851 0.421546,0.12763 0.661327,0.12763"
             style="font-size:5.80111408px;font-variant:normal;font-weight:900;font-stretch:normal;fill:#ffffff;font-family:KyrillaSansSerif-Black;-inkscape-font-specification:KyrillaSansSerif-Black Heavy"
             id="path3263"
             inkscape:connector-curvature="0" />
          <path
             d="m 67.338219,112.33598 1.015195,0 0,-0.87017 -1.020996,0 0.0058,0.87017 m -0.0058,3.46906 1.020996,0 0,-3.19641 -1.020996,0 0,3.19641"
             style="font-size:5.80111408px;font-variant:normal;font-weight:900;font-stretch:normal;fill:#ffffff;font-family:KyrillaSansSerif-Black;-inkscape-font-specification:KyrillaSansSerif-Black Heavy"
             id="path3265"
             inkscape:connector-curvature="0" />
          <path
             d="m 70.359512,115.88626 c 0.251379,0 0.477622,-0.0406 0.67873,-0.12183 0.20497,-0.0812 0.379003,-0.1953 0.5221,-0.34226 0.146959,-0.15083 0.259113,-0.32873 0.336465,-0.5337 0.07735,-0.20498 0.116019,-0.43122 0.116022,-0.67873 -3e-6,-0.24752 -0.03868,-0.47376 -0.116022,-0.67873 -0.07735,-0.20884 -0.187573,-0.38674 -0.330664,-0.53371 -0.143097,-0.14696 -0.31713,-0.26104 -0.5221,-0.34226 -0.204975,-0.0851 -0.433152,-0.12762 -0.684531,-0.12763 -0.251384,1e-5 -0.47956,0.0425 -0.684532,0.12763 -0.201106,0.0812 -0.373206,0.1953 -0.516299,0.34226 -0.143095,0.14697 -0.253316,0.32487 -0.330664,0.53371 -0.07735,0.20497 -0.116022,0.43121 -0.116022,0.67873 0,0.24751 0.03867,0.47375 0.116022,0.67873 0.07735,0.20497 0.187569,0.38287 0.330664,0.5337 0.143093,0.14696 0.315193,0.26105 0.516299,0.34226 0.204972,0.0812 0.433148,0.12183 0.684532,0.12183 m 0,-2.54669 c 0.119887,0 0.22044,0.0232 0.301658,0.0696 0.08121,0.0464 0.146959,0.11023 0.197237,0.19144 0.05027,0.0773 0.08508,0.16823 0.10442,0.27265 0.0232,0.10442 0.0348,0.21658 0.03481,0.33647 -2e-6,0.11602 -0.0116,0.22817 -0.03481,0.33646 -0.02321,0.10442 -0.05995,0.19531 -0.110221,0.27265 -0.05028,0.0773 -0.116024,0.13923 -0.197238,0.18564 -0.08122,0.0464 -0.179836,0.0696 -0.295856,0.0696 -0.116024,0 -0.214643,-0.0232 -0.295857,-0.0696 -0.08122,-0.0464 -0.146963,-0.10829 -0.197238,-0.18564 -0.05028,-0.0773 -0.08702,-0.16823 -0.110221,-0.27265 -0.01934,-0.10829 -0.02901,-0.22044 -0.02901,-0.33646 -10e-7,-0.11602 0.0097,-0.22625 0.02901,-0.33067 0.0232,-0.10828 0.05994,-0.2011 0.110221,-0.27845 0.05027,-0.0812 0.116021,-0.14503 0.197238,-0.19144 0.08121,-0.0464 0.179833,-0.0696 0.295857,-0.0696"
             style="font-size:5.80111408px;font-variant:normal;font-weight:900;font-stretch:normal;fill:#ffffff;font-family:KyrillaSansSerif-Black;-inkscape-font-specification:KyrillaSansSerif-Black Heavy"
             id="path3267"
             inkscape:connector-curvature="0" />
          <path
             d="m 73.418603,114.13432 0,-1.61271 -0.997792,0 0,3.28343 1.026797,0 0.957184,-1.63011 0,1.63011 0.991991,0 0,-3.28343 -1.026797,0 -0.951383,1.61271"
             style="font-size:5.80111408px;font-variant:normal;font-weight:900;font-stretch:normal;fill:#ffffff;font-family:KyrillaSansSerif-Black;-inkscape-font-specification:KyrillaSansSerif-Black Heavy"
             id="path3269"
             inkscape:connector-curvature="0" />
          <path
             d="m 79.896632,112.86968 c -0.112157,-0.11602 -0.243649,-0.2011 -0.394476,-0.25525 -0.15083,-0.058 -0.303593,-0.087 -0.458288,-0.087 -0.23978,1e-5 -0.44862,0.0483 -0.62652,0.14503 -0.177902,0.0928 -0.326797,0.21658 -0.446686,0.37127 -0.11989,0.15083 -0.20884,0.3268 -0.266851,0.5279 -0.05801,0.19724 -0.08702,0.40028 -0.08702,0.60912 0,0.21271 0.02901,0.42155 0.08702,0.62652 0.05801,0.20111 0.145027,0.38287 0.26105,0.54531 0.119889,0.15856 0.270718,0.28618 0.452487,0.38287 0.181767,0.10055 0.396408,0.15083 0.643924,0.15083 0.154694,0 0.303589,-0.0232 0.446685,-0.0696 0.143092,-0.0464 0.270717,-0.12375 0.382874,-0.23204 l 0,0.22044 0.974587,0 0,-4.33923 -1.020996,0 c -2e-6,0 -2e-6,0.0561 0,0.16823 -2e-6,0.11216 0.0019,0.24559 0.0058,0.40028 0.0039,0.1547 0.0097,0.31133 0.0174,0.46989 0.0077,0.1547 0.0174,0.27652 0.029,0.36547 m -0.632321,0.47569 c 0.11602,0 0.212705,0.0232 0.290055,0.0696 0.07735,0.0464 0.139225,0.10829 0.185636,0.18564 0.05027,0.0773 0.08508,0.16823 0.10442,0.27265 0.0232,0.10056 0.0348,0.20884 0.03481,0.32486 -3e-6,0.11603 -0.0116,0.22818 -0.03481,0.33647 -0.01934,0.10442 -0.05221,0.19724 -0.09862,0.27845 -0.04641,0.0812 -0.110223,0.14503 -0.191437,0.19144 -0.07735,0.0464 -0.174035,0.0696 -0.290055,0.0696 -0.108289,0 -0.203041,-0.0232 -0.284255,-0.0696 -0.07735,-0.0503 -0.143095,-0.11602 -0.197238,-0.19724 -0.05028,-0.0812 -0.08895,-0.17403 -0.116022,-0.27845 -0.02321,-0.10442 -0.03481,-0.21271 -0.03481,-0.32487 -10e-7,-0.11602 0.0116,-0.22624 0.03481,-0.33066 0.0232,-0.10442 0.05801,-0.1953 0.10442,-0.27265 0.05027,-0.0812 0.116021,-0.14503 0.197238,-0.19144 0.08121,-0.0464 0.179833,-0.0696 0.295857,-0.0696 l 0,0.006"
             style="font-size:5.80111408px;font-variant:normal;font-weight:900;font-stretch:normal;fill:#ffffff;font-family:KyrillaSansSerif-Black;-inkscape-font-specification:KyrillaSansSerif-Black Heavy"
             id="path3271"
             inkscape:connector-curvature="0" />
          <path
             d="m 84.324788,114.51139 c 0.0039,-0.0735 0.0058,-0.12569 0.0058,-0.15663 -3e-6,-0.0348 -3e-6,-0.0657 0,-0.0928 -3e-6,-0.23591 -0.03288,-0.46216 -0.09862,-0.67873 -0.06575,-0.21658 -0.164368,-0.40801 -0.295857,-0.57431 -0.131494,-0.1663 -0.293925,-0.29779 -0.487293,-0.39448 -0.193373,-0.0967 -0.417682,-0.14503 -0.672929,-0.14503 -0.243649,0 -0.466024,0.0464 -0.667128,0.13923 -0.201107,0.0889 -0.373206,0.21271 -0.5163,0.37127 -0.139227,0.1547 -0.249448,0.3384 -0.330663,0.55111 -0.07735,0.20884 -0.116022,0.43508 -0.116022,0.67873 0,0.25138 0.03674,0.48342 0.110221,0.69613 0.07735,0.21271 0.185635,0.39641 0.324862,0.55111 0.143094,0.15469 0.315193,0.27458 0.516299,0.35966 0.201104,0.0851 0.427348,0.12763 0.678731,0.12763 0.379004,0 0.694197,-0.0967 0.945581,-0.29006 0.255246,-0.19723 0.45055,-0.51436 0.585913,-0.95138 l -0.922377,0 c -0.04254,0.13536 -0.121826,0.23785 -0.237846,0.30746 -0.116024,0.0658 -0.230113,0.0986 -0.342266,0.0986 -0.197239,0 -0.348068,-0.0503 -0.452487,-0.15083 -0.100553,-0.10055 -0.160498,-0.24945 -0.179834,-0.44669 l 2.152213,0 m -1.572102,-1.20663 c 0.16243,0 0.282319,0.0406 0.359669,0.12183 0.08121,0.0773 0.141159,0.19337 0.179835,0.34806 l -1.119615,0 c 0.03094,-0.14696 0.09668,-0.26105 0.197238,-0.34226 0.104418,-0.0851 0.232043,-0.12763 0.382873,-0.12763"
             style="font-size:5.80111408px;font-variant:normal;font-weight:900;font-stretch:normal;fill:#ffffff;font-family:KyrillaSansSerif-Black;-inkscape-font-specification:KyrillaSansSerif-Black Heavy"
             id="path3273"
             inkscape:connector-curvature="0" />
          <path
             d="m 87.449142,112.83487 0,-0.22624 -0.980389,0 0,4.25221 1.020997,0 0,-1.28204 c 0.112153,0.10055 0.237844,0.17597 0.377072,0.22624 0.143092,0.0541 0.28812,0.0812 0.435084,0.0812 0.235909,0 0.442815,-0.0483 0.620719,-0.14503 0.177898,-0.0928 0.324859,-0.21464 0.440884,-0.36547 0.119887,-0.1547 0.208837,-0.33066 0.266852,-0.5279 0.05801,-0.19724 0.08701,-0.40028 0.08702,-0.60912 -3e-6,-0.22044 -0.02901,-0.43315 -0.08702,-0.63812 -0.05801,-0.20497 -0.146965,-0.38674 -0.266852,-0.54531 -0.116025,-0.15856 -0.266854,-0.28618 -0.452487,-0.38287 -0.18177,-0.0967 -0.400279,-0.14502 -0.655525,-0.14503 -0.154699,1e-5 -0.30166,0.0251 -0.440885,0.0754 -0.135361,0.0503 -0.259118,0.12762 -0.371271,0.23204 l 0.0058,0 m 0.62652,0.5105 c 0.112153,0 0.206904,0.0251 0.284255,0.0754 0.08121,0.0464 0.146959,0.11023 0.197238,0.19144 0.05027,0.0812 0.08701,0.17404 0.110221,0.27845 0.0232,0.10443 0.0348,0.21271 0.03481,0.32487 -2e-6,0.11602 -0.0116,0.22624 -0.03481,0.33066 -0.01934,0.10442 -0.05415,0.19531 -0.10442,0.27265 -0.05028,0.0773 -0.114091,0.13923 -0.191437,0.18564 -0.07735,0.0464 -0.174035,0.0696 -0.290056,0.0696 -0.116024,0 -0.214643,-0.0232 -0.295857,-0.0696 -0.07735,-0.0464 -0.141161,-0.10829 -0.191436,-0.18564 -0.04641,-0.0812 -0.08122,-0.1721 -0.10442,-0.27265 -0.02321,-0.10442 -0.03481,-0.21464 -0.03481,-0.33066 -10e-7,-0.11602 0.0097,-0.22624 0.029,-0.33067 0.0232,-0.10828 0.05994,-0.2011 0.110222,-0.27845 0.05027,-0.0812 0.114087,-0.14503 0.191436,-0.19144 0.07735,-0.0503 0.174032,-0.0754 0.290056,-0.0754 l 0,0.006"
             style="font-size:5.80111408px;font-variant:normal;font-weight:900;font-stretch:normal;fill:#ffffff;font-family:KyrillaSansSerif-Black;-inkscape-font-specification:KyrillaSansSerif-Black Heavy"
             id="path3275"
             inkscape:connector-curvature="0" />
          <path
             d="m 92.004918,115.82245 1.073207,0 c -0.08122,-0.1431 -0.131495,-0.28426 -0.150829,-0.42349 -0.01934,-0.14309 -0.02901,-0.26491 -0.02901,-0.36547 l 0,-1.5837 c -3e-6,-0.21271 -0.04835,-0.38287 -0.145028,-0.5105 -0.09282,-0.13149 -0.210776,-0.23204 -0.353868,-0.30166 -0.139229,-0.0696 -0.291991,-0.11408 -0.458288,-0.13342 -0.162433,-0.0232 -0.313262,-0.0348 -0.452487,-0.0348 -0.170167,0 -0.342267,0.0174 -0.516299,0.0522 -0.174034,0.0348 -0.332598,0.0986 -0.475691,0.19144 -0.139227,0.0928 -0.257183,0.22044 -0.353868,0.38287 -0.09669,0.15857 -0.150829,0.36161 -0.162431,0.60912 l 1.009394,0 c 0.01547,-0.18563 0.06188,-0.31133 0.139226,-0.37707 0.07735,-0.0657 0.183701,-0.0986 0.319062,-0.0986 0.146959,0 0.25718,0.0213 0.330663,0.0638 0.07348,0.0387 0.110219,0.12763 0.110221,0.26685 -2e-6,0.0541 -0.01934,0.0986 -0.05801,0.13343 -0.03481,0.0309 -0.09669,0.0561 -0.185636,0.0754 -0.08895,0.0232 -0.193372,0.0406 -0.31326,0.0522 -0.116023,0.008 -0.235913,0.0193 -0.359669,0.0348 -0.127625,0.0193 -0.25525,0.0464 -0.382873,0.0812 -0.127626,0.0348 -0.243648,0.089 -0.348067,0.16243 -0.104421,0.0735 -0.189503,0.17211 -0.255249,0.29586 -0.06575,0.12376 -0.09862,0.28426 -0.09862,0.48149 0,0.17404 0.029,0.3268 0.08702,0.45829 0.06188,0.12763 0.143093,0.23398 0.243646,0.31906 0.10442,0.0851 0.224309,0.14696 0.359669,0.18564 0.135359,0.0425 0.278453,0.0638 0.429283,0.0638 0.16243,0 0.324861,-0.0213 0.487293,-0.0638 0.166297,-0.0425 0.317126,-0.11602 0.452487,-0.22044 0.0077,0.0309 0.01547,0.0619 0.02321,0.0928 0.0116,0.0309 0.0232,0.0677 0.03481,0.11023 m -0.121823,-1.42128 0,0.15663 c -2e-6,0.20111 -0.04448,0.35 -0.133426,0.44669 -0.08895,0.0928 -0.23398,0.13923 -0.435083,0.13923 -0.127626,0 -0.228179,-0.0213 -0.301658,-0.0638 -0.07348,-0.0425 -0.110222,-0.12375 -0.110221,-0.24364 -10e-7,-0.11216 0.0348,-0.19144 0.10442,-0.23785 0.07348,-0.0464 0.172098,-0.0793 0.295857,-0.0986 0.09668,-0.0193 0.195302,-0.0309 0.295857,-0.0348 0.10055,-0.008 0.197235,-0.029 0.290055,-0.0638 l -0.0058,0"
             style="font-size:5.80111408px;font-variant:normal;font-weight:900;font-stretch:normal;fill:#ffffff;font-family:KyrillaSansSerif-Black;-inkscape-font-specification:KyrillaSansSerif-Black Heavy"
             id="path3277"
             inkscape:connector-curvature="0" />
          <path
             d="m 94.413649,113.36277 0.812156,0 0,-0.84116 -1.804146,0 0,3.28343 0.99199,0 0,-2.44227"
             style="font-size:5.80111408px;font-variant:normal;font-weight:900;font-stretch:normal;fill:#ffffff;font-family:KyrillaSansSerif-Black;-inkscape-font-specification:KyrillaSansSerif-Black Heavy"
             id="path3279"
             inkscape:connector-curvature="0" />
          <path
             d="m 98.442342,114.51139 c 0.0039,-0.0735 0.0058,-0.12569 0.0058,-0.15663 -3e-6,-0.0348 -3e-6,-0.0657 0,-0.0928 -3e-6,-0.23591 -0.03288,-0.46216 -0.09862,-0.67873 -0.06575,-0.21658 -0.164368,-0.40801 -0.295857,-0.57431 -0.131494,-0.1663 -0.293925,-0.29779 -0.487293,-0.39448 -0.193373,-0.0967 -0.417683,-0.14503 -0.67293,-0.14503 -0.243648,0 -0.466024,0.0464 -0.667128,0.13923 -0.201106,0.0889 -0.373205,0.21271 -0.516299,0.37127 -0.139227,0.1547 -0.249448,0.3384 -0.330663,0.55111 -0.07735,0.20884 -0.116023,0.43508 -0.116023,0.67873 0,0.25138 0.03674,0.48342 0.110221,0.69613 0.07735,0.21271 0.185636,0.39641 0.324863,0.55111 0.143093,0.15469 0.315193,0.27458 0.516299,0.35966 0.201104,0.0851 0.427347,0.12763 0.67873,0.12763 0.379004,0 0.694198,-0.0967 0.945582,-0.29006 0.255246,-0.19723 0.45055,-0.51436 0.585913,-0.95138 l -0.922378,0 c -0.04254,0.13536 -0.121825,0.23785 -0.237845,0.30746 -0.116025,0.0658 -0.230113,0.0986 -0.342266,0.0986 -0.197239,0 -0.348068,-0.0503 -0.452487,-0.15083 -0.100554,-0.10055 -0.160499,-0.24945 -0.179834,-0.44669 l 2.152213,0 m -1.572102,-1.20663 c 0.162429,0 0.282319,0.0406 0.359669,0.12183 0.08121,0.0773 0.141158,0.19337 0.179835,0.34806 l -1.119615,0 c 0.03094,-0.14696 0.09668,-0.26105 0.197237,-0.34226 0.104419,-0.0851 0.232043,-0.12763 0.382874,-0.12763"
             style="font-size:5.80111408px;font-variant:normal;font-weight:900;font-stretch:normal;fill:#ffffff;font-family:KyrillaSansSerif-Black;-inkscape-font-specification:KyrillaSansSerif-Black Heavy"
             id="path3281"
             inkscape:connector-curvature="0" />
          <path
             d="m 100.10273,115.94427 c 0.17403,0 0.34806,-0.0193 0.5221,-0.058 0.17403,-0.0387 0.33066,-0.10249 0.46989,-0.19144 0.13922,-0.089 0.25331,-0.20884 0.34227,-0.35967 0.0889,-0.15083 0.13342,-0.34033 0.13342,-0.56851 0,-0.16629 -0.0309,-0.30359 -0.0928,-0.41188 -0.0619,-0.11215 -0.14309,-0.20303 -0.24364,-0.27265 -0.0967,-0.0735 -0.20691,-0.13149 -0.33067,-0.17403 -0.11989,-0.0425 -0.23784,-0.0793 -0.35387,-0.11022 -0.11602,-0.0271 -0.23011,-0.0522 -0.34226,-0.0754 -0.10829,-0.0232 -0.20691,-0.0503 -0.295858,-0.0812 -0.08508,-0.0309 -0.145029,-0.0638 -0.179834,-0.0986 -0.03481,-0.0348 -0.05221,-0.0735 -0.05221,-0.11602 -10e-7,-0.0464 0.0116,-0.0832 0.03481,-0.11023 0.02707,-0.0271 0.05801,-0.0464 0.09282,-0.058 0.03867,-0.0155 0.07928,-0.0232 0.121824,-0.0232 0.04254,-0.004 0.08121,-0.006 0.116028,-0.006 0.13536,0 0.24558,0.029 0.33066,0.087 0.0851,0.0541 0.13343,0.1663 0.14503,0.33647 l 0.97459,0 c -0.0193,-0.23591 -0.0735,-0.42928 -0.16243,-0.58011 -0.089,-0.1547 -0.19918,-0.27652 -0.33067,-0.36547 -0.13149,-0.0889 -0.27845,-0.15083 -0.44088,-0.18564 -0.16244,-0.0348 -0.3268,-0.0522 -0.4931,-0.0522 -0.162434,0 -0.326799,0.0155 -0.493096,0.0464 -0.1663,0.0309 -0.317129,0.087 -0.452487,0.16823 -0.13536,0.0812 -0.245581,0.19338 -0.330664,0.33647 -0.08508,0.14309 -0.127624,0.32486 -0.127624,0.5453 0,0.15083 0.02707,0.27652 0.08122,0.37707 0.05414,0.10056 0.125691,0.18564 0.214642,0.25525 0.09282,0.0657 0.197237,0.12183 0.31326,0.16824 0.116021,0.0425 0.233977,0.0793 0.353868,0.11022 0.123756,0.0309 0.245579,0.0599 0.36547,0.087 0.119891,0.0232 0.228171,0.0542 0.324861,0.0928 0.0889,0.0309 0.15083,0.0658 0.18564,0.10442 0.0348,0.0348 0.0522,0.0735 0.0522,0.11602 -1e-5,0.10442 -0.0445,0.18177 -0.13343,0.23205 -0.0889,0.0503 -0.19337,0.0754 -0.31326,0.0754 -0.146962,0 -0.272652,-0.0387 -0.377071,-0.11602 -0.104421,-0.0773 -0.158565,-0.21464 -0.162431,-0.41188 l -0.974588,0 c 0.0116,0.25138 0.06188,0.46022 0.150829,0.62652 0.09282,0.16243 0.210774,0.29393 0.353868,0.39448 0.143094,0.0967 0.301657,0.16436 0.475692,0.20304 0.174032,0.0425 0.349999,0.0638 0.527901,0.0638"
             style="font-size:5.80111408px;font-variant:normal;font-weight:900;font-stretch:normal;fill:#ffffff;font-family:KyrillaSansSerif-Black;-inkscape-font-specification:KyrillaSansSerif-Black Heavy"
             id="path3283"
             inkscape:connector-curvature="0" />
        </g>
      </g>
    </g>
  </g>
</svg>
