<?xml version="1.0" encoding="UTF-8" standalone="no"?>
<!-- Created with Inkscape (http://www.inkscape.org/) -->

<svg
   xmlns:dc="http://purl.org/dc/elements/1.1/"
   xmlns:cc="http://creativecommons.org/ns#"
   xmlns:rdf="http://www.w3.org/1999/02/22-rdf-syntax-ns#"
   xmlns:svg="http://www.w3.org/2000/svg"
   xmlns="http://www.w3.org/2000/svg"
   xmlns:xlink="http://www.w3.org/1999/xlink"
   xmlns:sodipodi="http://sodipodi.sourceforge.net/DTD/sodipodi-0.dtd"
   xmlns:inkscape="http://www.inkscape.org/namespaces/inkscape"
   width="297mm"
   height="420mm"
   viewBox="0 0 1052.3622 1488.189"
   id="svg18317"
   version="1.1"
   inkscape:version="0.91 r13725"
   sodipodi:docname="en_defensa_del_software_libre_3_a3.svg">
  <defs
     id="defs18319" />
  <sodipodi:namedview
     id="base"
     pagecolor="#ffffff"
     bordercolor="#666666"
     borderopacity="1.0"
     inkscape:pageopacity="0.0"
     inkscape:pageshadow="2"
     inkscape:zoom="0.14227475"
     inkscape:cx="-29.785684"
     inkscape:cy="67.4558"
     inkscape:document-units="mm"
     inkscape:current-layer="g19043"
     showgrid="false"
     inkscape:window-width="1366"
     inkscape:window-height="746"
     inkscape:window-x="0"
     inkscape:window-y="22"
     inkscape:window-maximized="0" />
  <metadata
     id="metadata18322">
    <rdf:RDF>
      <cc:Work
         rdf:about="">
        <dc:format>image/svg+xml</dc:format>
        <dc:type
           rdf:resource="http://purl.org/dc/dcmitype/StillImage" />
        <dc:title></dc:title>
      </cc:Work>
    </rdf:RDF>
  </metadata>
  <g
     inkscape:label="Capa 1"
     inkscape:groupmode="layer"
     id="layer1"
     transform="translate(0,435.82677)">
    <g
       id="g19043"
       transform="translate(317.01118,288.76983)">
      <rect
         style="display:inline;fill:#d40055;fill-opacity:1;fill-rule:nonzero;stroke:none"
         id="rect5772"
         width="1052.3622"
         height="744.09448"
         x="-317.01117"
         y="19.497894" />
      <text
         xml:space="preserve"
         style="font-style:normal;font-weight:normal;font-size:10.50919342px;line-height:125%;font-family:sans-serif;letter-spacing:0px;word-spacing:0px;display:inline;fill:#000000;fill-opacity:1;stroke:none"
         x="-720.69464"
         y="212.32489"
         id="text5822"
         sodipodi:linespacing="125%"
         transform="matrix(0,-1,1,0,0,0)"><tspan
           sodipodi:role="line"
           id="tspan5824"
           x="-720.69464"
           y="212.32489"><tspan
             style="font-style:normal;font-variant:normal;font-weight:100;font-stretch:normal;font-family:'Encode Sans Wide';-inkscape-font-specification:'Encode Sans Wide Thin'"
             id="tspan5826"><tspan
   style="font-style:normal;font-variant:normal;font-weight:500;font-stretch:normal;font-family:'Encode Sans Normal';-inkscape-font-specification:'Encode Sans Normal,  Medium'"
   id="tspan5828"> EDSL</tspan> - Revista de Teoría sobre Software y Cultura Libre</tspan></tspan></text>
      <g
         id="g4442"
         transform="matrix(0.34241954,0,0,0.34241954,-154.19599,378.29631)"
         style="display:inline">
        <g
           transform="translate(-25.893976,85.858975)"
           id="g4418">
          <circle
             style="fill-opacity:1;stroke:none"
             id="path4410"
             cx="256.21408"
             cy="650.32416"
             r="174.44363"
             clip-path="none" />
          <circle
             style="fill:#ffffff;fill-opacity:1;stroke:none"
             id="path4412"
             cx="258.25836"
             cy="651.00574"
             r="139.69119"
             clip-path="none" />
        </g>
        <g
           id="g4438">
          <path
             style="fill:#000000;fill-rule:evenodd;stroke:#000000;stroke-width:1px;stroke-linecap:butt;stroke-linejoin:miter;stroke-opacity:1"
             d="m 140.37261,821.4935 8.05658,-178.44952 26.01444,-0.083 5.45136,124.335 46.33659,-39.8388 0,39.6806 42.24807,-38.3178 -0.48184,38.4075 46.81843,-41.1332 -1.36284,94.03612 z"
             id="path4424"
             inkscape:connector-curvature="0"
             sodipodi:nodetypes="ccccccccccc" />
          <path
             style="fill:#000000;fill-rule:evenodd;stroke:#000000;stroke-width:1px;stroke-linecap:butt;stroke-linejoin:miter;stroke-opacity:1"
             d="m 182.18647,649.08938 c 14.16278,35.1041 6.73844,61.74664 2.64302,73.1187 29.38515,-12.65713 52.35876,-4.068 68.00446,-0.32 7.82285,1.874 21.21047,2.51083 34.32866,1.92925 13.1182,-0.58158 17.8962,-6.11579 32.71213,-5.38115 -2.53021,-16.2502 -4.1854,-28.5421 -4.30771,-39.2806 -0.11401,-10.0103 7.58533,-20.1424 4.98913,-35.6757 -24.01226,8.5718 -45.57973,16.0814 -69.86272,9.8079 -24.28299,-6.2735 -42.81345,-7.8315 -68.50697,-4.1984 z"
             id="path4426"
             inkscape:connector-curvature="0"
             sodipodi:nodetypes="ccsscsczc" />
        </g>
      </g>
      <flowRoot
         transform="translate(-317.01117,19.497894)"
         xml:space="preserve"
         id="flowRoot5870"
         style="font-style:normal;font-weight:normal;font-size:11.91024399px;line-height:125%;font-family:sans-serif;letter-spacing:0px;word-spacing:0px;display:inline;fill:#000000;fill-opacity:1;stroke:none"><flowRegion
           id="flowRegion5872"><rect
             id="rect5874"
             width="201.2739"
             height="36.359154"
             x="167.36812"
             y="688.802"
             style="font-size:11.91024399px" /></flowRegion><flowPara
           id="flowPara5876"
           style="font-style:normal;font-variant:normal;font-weight:500;font-stretch:normal;font-size:11.91024399px;font-family:'Encode Sans Normal';-inkscape-font-specification:'Encode Sans Normal,  Medium'">Licencia de Producción de Pares</flowPara></flowRoot>      <flowRoot
         transform="translate(-317.01117,19.497894)"
         style="font-style:normal;font-variant:normal;font-weight:normal;font-stretch:normal;font-size:38.11278152px;line-height:300%;font-family:'DejaVu Sans Mono';-inkscape-font-specification:'DejaVu Sans Mono';text-align:start;letter-spacing:0px;word-spacing:0px;text-anchor:start;display:inline;fill:#000000;fill-opacity:1;stroke:none"
         id="flowRoot5774"
         xml:space="preserve"><flowRegion
           id="flowRegion5776"><rect
             y="23.86097"
             x="514.02185"
             height="1248.9309"
             width="561.35223"
             id="rect5778"
             style="font-style:normal;font-variant:normal;font-weight:normal;font-stretch:normal;line-height:300%;font-family:'DejaVu Sans Mono';-inkscape-font-specification:'DejaVu Sans Mono';text-align:start;text-anchor:start" /></flowRegion><flowPara
           id="flowPara5780"
           style="font-style:normal;font-variant:normal;font-weight:normal;font-stretch:normal;font-size:15.24511242px;line-height:300%;font-family:'DejaVu Sans Mono';-inkscape-font-specification:'DejaVu Sans Mono';text-align:center;text-anchor:middle">▲    ▲    ▲    ▲    ▲    ▲    ▲    ▲    ▲    ▲</flowPara><flowPara
           style="font-style:normal;font-variant:normal;font-weight:normal;font-stretch:normal;font-size:15.24511242px;line-height:300%;font-family:'DejaVu Sans Mono';-inkscape-font-specification:'DejaVu Sans Mono';text-align:center;text-anchor:middle"
           id="flowPara5782">▲    ▲    ▲    ▲    ▲    ▲    ▲    ▲    ▲    ▲</flowPara><flowPara
           style="font-style:normal;font-variant:normal;font-weight:normal;font-stretch:normal;font-size:15.24511242px;line-height:300%;font-family:'DejaVu Sans Mono';-inkscape-font-specification:'DejaVu Sans Mono';text-align:center;text-anchor:middle"
           id="flowPara5784">▲    ▲    ▲    ▲    ▲    ▲    ▲    ▲    ▲    ▲</flowPara><flowPara
           style="font-style:normal;font-variant:normal;font-weight:normal;font-stretch:normal;font-size:15.24511242px;line-height:300%;font-family:'DejaVu Sans Mono';-inkscape-font-specification:'DejaVu Sans Mono';text-align:center;text-anchor:middle"
           id="flowPara5786">▲    ▲    ▲    ▲    ▲    ▲    ▲    ▲    ▲    ▲</flowPara><flowPara
           style="font-style:normal;font-variant:normal;font-weight:normal;font-stretch:normal;font-size:15.24511242px;line-height:300%;font-family:'DejaVu Sans Mono';-inkscape-font-specification:'DejaVu Sans Mono';text-align:center;text-anchor:middle"
           id="flowPara5788">               ▲    ▲    ▲    ▲    ▲    ▲    ▲</flowPara><flowPara
           style="font-style:normal;font-variant:normal;font-weight:normal;font-stretch:normal;font-size:15.24511242px;line-height:300%;font-family:'DejaVu Sans Mono';-inkscape-font-specification:'DejaVu Sans Mono';text-align:center;text-anchor:middle"
           id="flowPara5790">▲    ▲    ▲    ▲    ▲    ▲    ▲    ▲    ▲    ▲</flowPara><flowPara
           style="font-style:normal;font-variant:normal;font-weight:normal;font-stretch:normal;font-size:15.24511242px;line-height:300%;font-family:'DejaVu Sans Mono';-inkscape-font-specification:'DejaVu Sans Mono';text-align:center;text-anchor:middle"
           id="flowPara5792">▲    ▲    ▲    ▲    ▲    ▲    ▲    ▲    ▲    ▲</flowPara><flowPara
           style="font-style:normal;font-variant:normal;font-weight:normal;font-stretch:normal;font-size:15.24511242px;line-height:300%;font-family:'DejaVu Sans Mono';-inkscape-font-specification:'DejaVu Sans Mono';text-align:center;text-anchor:middle"
           id="flowPara5794">▲    ▲    ▲    ▲    ▲    ▲    ▲    ▲    ▲    ▲</flowPara><flowPara
           style="font-style:normal;font-variant:normal;font-weight:normal;font-stretch:normal;font-size:15.24511242px;line-height:300%;font-family:'DejaVu Sans Mono';-inkscape-font-specification:'DejaVu Sans Mono';text-align:center;text-anchor:middle"
           id="flowPara5796">▲    ▲    ▲         ▲    ▲    ▲    ▲    ▲    ▲</flowPara><flowPara
           style="font-style:normal;font-variant:normal;font-weight:normal;font-stretch:normal;font-size:15.24511242px;line-height:300%;font-family:'DejaVu Sans Mono';-inkscape-font-specification:'DejaVu Sans Mono';text-align:center;text-anchor:middle"
           id="flowPara5798">▲    ▲    ▲         ▲    ▲    ▲    ▲    ▲    ▲</flowPara><flowPara
           style="font-style:normal;font-variant:normal;font-weight:normal;font-stretch:normal;font-size:15.24511242px;line-height:300%;font-family:'DejaVu Sans Mono';-inkscape-font-specification:'DejaVu Sans Mono';text-align:center;text-anchor:middle"
           id="flowPara5800">▲    ▲    ▲    ▲    ▲    ▲    ▲                </flowPara><flowPara
           style="font-style:normal;font-variant:normal;font-weight:normal;font-stretch:normal;font-size:15.24511242px;line-height:300%;font-family:'DejaVu Sans Mono';-inkscape-font-specification:'DejaVu Sans Mono';text-align:center;text-anchor:middle"
           id="flowPara5802">▲    ▲    ▲    ▲    ▲    ▲    <flowSpan
   id="flowSpan5804"
   style="fill:#00ffff">1</flowSpan>    ▲         ▲</flowPara><flowPara
           style="font-style:normal;font-variant:normal;font-weight:normal;font-stretch:normal;font-size:15.24511242px;line-height:300%;font-family:'DejaVu Sans Mono';-inkscape-font-specification:'DejaVu Sans Mono';text-align:center;text-anchor:middle"
           id="flowPara5806">▲    ▲    ▲    <flowSpan
   id="flowSpan5808"
   style="fill:#00ffff">0    1</flowSpan>    ▲    <flowSpan
   id="flowSpan5810"
   style="fill:#00ffff">0</flowSpan>    ▲    ▲    ▲</flowPara><flowPara
           style="font-style:normal;font-variant:normal;font-weight:normal;font-stretch:normal;font-size:15.24511242px;line-height:300%;font-family:'DejaVu Sans Mono';-inkscape-font-specification:'DejaVu Sans Mono';text-align:center;text-anchor:middle"
           id="flowPara5812">▲    ▲    <flowSpan
   id="flowSpan5814"
   style="fill:#00ffff">0</flowSpan>    ▲    <flowSpan
   id="flowSpan5816"
   style="fill:#00ffff">1</flowSpan>    ▲    ▲    ▲    <flowSpan
   style="fill:#00ffff"
   id="flowSpan5818">1</flowSpan>    ▲</flowPara><flowPara
           style="font-style:normal;font-variant:normal;font-weight:normal;font-stretch:normal;font-size:15.24511242px;line-height:300%;font-family:'DejaVu Sans Mono';-inkscape-font-specification:'DejaVu Sans Mono';text-align:center;text-anchor:middle"
           id="flowPara5821">▲    <flowSpan
   style="fill:#00ffff"
   id="flowSpan5823">1</flowSpan>    ▲    <flowSpan
   style="fill:#00ffff"
   id="flowSpan5825">1</flowSpan>    ▲    ▲    <flowSpan
   style="fill:#00ffff"
   id="flowSpan5827">0    1    1    0</flowSpan></flowPara><flowPara
           style="font-style:normal;font-variant:normal;font-weight:normal;font-stretch:normal;font-size:15.24511242px;line-height:300%;font-family:'DejaVu Sans Mono';-inkscape-font-specification:'DejaVu Sans Mono';text-align:center;text-anchor:middle"
           id="flowPara5829" /></flowRoot>      <flowRoot
         transform="translate(-317.01117,19.497894)"
         xml:space="preserve"
         id="flowRoot5831"
         style="font-style:normal;font-variant:normal;font-weight:normal;font-stretch:normal;font-size:38.11278152px;line-height:300%;font-family:'DejaVu Sans Mono';-inkscape-font-specification:'DejaVu Sans Mono';text-align:start;letter-spacing:0px;word-spacing:0px;text-anchor:start;display:inline;fill:#000000;fill-opacity:1;stroke:none"><flowRegion
           id="flowRegion5833"><rect
             style="font-style:normal;font-variant:normal;font-weight:normal;font-stretch:normal;line-height:300%;font-family:'DejaVu Sans Mono';-inkscape-font-specification:'DejaVu Sans Mono';text-align:start;text-anchor:start"
             id="rect5835"
             width="732.85101"
             height="1046.8074"
             x="428.26813"
             y="49.784519" /></flowRegion><flowPara
           style="font-style:normal;font-variant:normal;font-weight:normal;font-stretch:normal;font-size:15.24511242px;line-height:300%;font-family:'DejaVu Sans Mono';-inkscape-font-specification:'DejaVu Sans Mono';text-align:center;text-anchor:middle"
           id="flowPara5837">▼    ▼    ▼    ▼    ▼    ▼    ▼    ▼    ▼    ▼    ▼</flowPara><flowPara
           id="flowPara5839"
           style="font-style:normal;font-variant:normal;font-weight:normal;font-stretch:normal;font-size:15.24511242px;line-height:300%;font-family:'DejaVu Sans Mono';-inkscape-font-specification:'DejaVu Sans Mono';text-align:center;text-anchor:middle">▼    ▼    ▼    ▼    ▼    ▼    ▼    ▼    ▼    ▼    ▼</flowPara><flowPara
           id="flowPara5841"
           style="font-style:normal;font-variant:normal;font-weight:normal;font-stretch:normal;font-size:15.24511242px;line-height:300%;font-family:'DejaVu Sans Mono';-inkscape-font-specification:'DejaVu Sans Mono';text-align:center;text-anchor:middle">▼    ▼    ▼    ▼    ▼    ▼    ▼    ▼    ▼    ▼    ▼</flowPara><flowPara
           id="flowPara5843"
           style="font-style:normal;font-variant:normal;font-weight:normal;font-stretch:normal;font-size:15.24511242px;line-height:300%;font-family:'DejaVu Sans Mono';-inkscape-font-specification:'DejaVu Sans Mono';text-align:center;text-anchor:middle">▼                                  ▼    ▼    ▼    ▼</flowPara><flowPara
           id="flowPara5845"
           style="font-style:normal;font-variant:normal;font-weight:normal;font-stretch:normal;font-size:15.24511242px;line-height:300%;font-family:'DejaVu Sans Mono';-inkscape-font-specification:'DejaVu Sans Mono';text-align:center;text-anchor:middle">▼    ▼    ▼    ▼    ▼    ▼    ▼    ▼    ▼    ▼    ▼</flowPara><flowPara
           id="flowPara5847"
           style="font-style:normal;font-variant:normal;font-weight:normal;font-stretch:normal;font-size:15.24511242px;line-height:300%;font-family:'DejaVu Sans Mono';-inkscape-font-specification:'DejaVu Sans Mono';text-align:center;text-anchor:middle">▼    ▼    ▼    ▼    ▼    ▼    ▼    ▼    ▼    ▼    ▼</flowPara><flowPara
           id="flowPara5849"
           style="font-style:normal;font-variant:normal;font-weight:normal;font-stretch:normal;font-size:15.24511242px;line-height:300%;font-family:'DejaVu Sans Mono';-inkscape-font-specification:'DejaVu Sans Mono';text-align:center;text-anchor:middle">▼    ▼    ▼    ▼    ▼    ▼    ▼         ▼    ▼    ▼</flowPara><flowPara
           id="flowPara5851"
           style="font-style:normal;font-variant:normal;font-weight:normal;font-stretch:normal;font-size:15.24511242px;line-height:300%;font-family:'DejaVu Sans Mono';-inkscape-font-specification:'DejaVu Sans Mono';text-align:center;text-anchor:middle">▼    ▼    ▼    ▼    ▼    ▼    ▼    ▼    ▼    ▼    ▼</flowPara><flowPara
           id="flowPara5853"
           style="font-style:normal;font-variant:normal;font-weight:normal;font-stretch:normal;font-size:15.24511242px;line-height:300%;font-family:'DejaVu Sans Mono';-inkscape-font-specification:'DejaVu Sans Mono';text-align:center;text-anchor:middle">▼    ▼    ▼    ▼    ▼    ▼    ▼    ▼    ▼    ▼    ▼</flowPara><flowPara
           id="flowPara5855"
           style="font-style:normal;font-variant:normal;font-weight:normal;font-stretch:normal;font-size:15.24511242px;line-height:300%;font-family:'DejaVu Sans Mono';-inkscape-font-specification:'DejaVu Sans Mono';text-align:center;text-anchor:middle">▼    ▼    ▼    ▼    ▼    ▼    ▼    ▼    ▼    ▼    <flowSpan
   id="flowSpan5857"
   style="fill:#00ffff">1</flowSpan></flowPara><flowPara
           id="flowPara5859"
           style="font-style:normal;font-variant:normal;font-weight:normal;font-stretch:normal;font-size:15.24511242px;line-height:300%;font-family:'DejaVu Sans Mono';-inkscape-font-specification:'DejaVu Sans Mono';text-align:center;text-anchor:middle">▼    ▼    ▼    ▼    ▼    ▼    ▼    ▼    ▼         <flowSpan
   id="flowSpan5861"
   style="fill:#00ffff">0</flowSpan></flowPara><flowPara
           id="flowPara5863"
           style="font-style:normal;font-variant:normal;font-weight:normal;font-stretch:normal;font-size:15.24511242px;line-height:300%;font-family:'DejaVu Sans Mono';-inkscape-font-specification:'DejaVu Sans Mono';text-align:center;text-anchor:middle">▼    ▼    ▼    ▼    ▼    ▼    <flowSpan
   id="flowSpan5865"
   style="fill:#00ffff">0    0</flowSpan>    ▼         ▼</flowPara><flowPara
           id="flowPara5867"
           style="font-style:normal;font-variant:normal;font-weight:normal;font-stretch:normal;font-size:15.24511242px;line-height:300%;font-family:'DejaVu Sans Mono';-inkscape-font-specification:'DejaVu Sans Mono';text-align:center;text-anchor:middle">▼    ▼    ▼    ▼    ▼    ▼    ▼    <flowSpan
   style="fill:#00ffff"
   id="flowSpan5869">1</flowSpan>    ▼    ▼    ▼</flowPara><flowPara
           id="flowPara5871"
           style="font-style:normal;font-variant:normal;font-weight:normal;font-stretch:normal;font-size:15.24511242px;line-height:300%;font-family:'DejaVu Sans Mono';-inkscape-font-specification:'DejaVu Sans Mono';text-align:center;text-anchor:middle">▼    ▼    <flowSpan
   style="fill:#00ffff"
   id="flowSpan5873">0    0</flowSpan>    ▼    ▼    <flowSpan
   id="flowSpan5875"
   style="fill:#00ffff">1    0              1</flowSpan></flowPara><flowPara
           id="flowPara5877"
           style="font-style:normal;font-variant:normal;font-weight:normal;font-stretch:normal;font-size:15.24511242px;line-height:300%;font-family:'DejaVu Sans Mono';-inkscape-font-specification:'DejaVu Sans Mono';text-align:center;text-anchor:middle" /><flowPara
           id="flowPara5879"
           style="font-style:normal;font-variant:normal;font-weight:normal;font-stretch:normal;font-size:15.24511242px;line-height:300%;font-family:'DejaVu Sans Mono';-inkscape-font-specification:'DejaVu Sans Mono';text-align:center;text-anchor:middle" /></flowRoot>      <text
         sodipodi:linespacing="125%"
         id="text3821"
         y="697.05273"
         x="576.37347"
         style="font-style:normal;font-weight:normal;font-size:280.77578735px;line-height:125%;font-family:sans-serif;letter-spacing:0px;word-spacing:0px;display:inline;fill:#00ffff;fill-opacity:1;stroke:none"
         xml:space="preserve"><tspan
           style="font-style:normal;font-variant:normal;font-weight:normal;font-stretch:normal;font-size:276.31765747px;line-height:125%;font-family:'Lohit Tamil';-inkscape-font-specification:'Lohit Tamil';text-align:start;writing-mode:lr-tb;text-anchor:start;fill:#00ffff;fill-opacity:1"
           y="697.05273"
           x="576.37347"
           id="tspan3823"
           sodipodi:role="line">3</tspan></text>
      <text
         xml:space="preserve"
         style="font-style:normal;font-weight:normal;font-size:280.77578735px;line-height:125%;font-family:sans-serif;letter-spacing:0px;word-spacing:0px;display:inline;fill:#ffffff;fill-opacity:1;stroke:none"
         x="204.55652"
         y="82.856438"
         id="text5881"
         sodipodi:linespacing="125%"><tspan
           sodipodi:role="line"
           id="tspan5883"
           x="204.55652"
           y="82.856438"
           style="font-style:normal;font-variant:normal;font-weight:normal;font-stretch:normal;font-size:19.05639076px;line-height:125%;font-family:'Lohit Tamil';-inkscape-font-specification:'Lohit Tamil';text-align:start;writing-mode:lr-tb;text-anchor:start;fill:#ffffff;fill-opacity:1">3</tspan></text>
      <g
         style="display:inline"
         id="g4167"
         transform="matrix(0.95281955,0,0,0.95281955,-307.52843,-634.76864)">
        <rect
           style="fill:#ffffff;fill-opacity:1;stroke:none"
           id="rect4046"
           width="98.192215"
           height="64.214897"
           x="595.42761"
           y="763.48621" />
        <rect
           style="fill:#ffffff;fill-opacity:1;stroke:none"
           id="rect4048"
           width="304.73468"
           height="70.687508"
           x="595.42761"
           y="836.57489" />
        <rect
           style="fill:#ffffff;fill-opacity:1;stroke:none"
           id="rect4050"
           width="118.96778"
           height="71.978462"
           x="595.42761"
           y="924.69519" />
        <rect
           style="fill:#ffffff;fill-opacity:1;stroke:none"
           id="rect4052"
           width="325.44128"
           height="82.000862"
           x="595.42761"
           y="1006.0818" />
        <rect
           y="1094.4266"
           x="595.42761"
           height="77.660286"
           width="158.99257"
           id="rect4054"
           style="fill:#ffffff;fill-opacity:1;stroke:none" />
      </g>
      <g
         transform="matrix(1.075976,0,0,1.075976,-262.25354,-348.14622)"
         style="font-style:normal;font-weight:normal;font-size:90px;line-height:125%;font-family:sans-serif;letter-spacing:0px;word-spacing:0px;display:inline;fill:#d40055;fill-opacity:1;stroke:none"
         id="flowRoot5885">
        <path
           d="m 508.62031,457.01782 q -9.20961,0 -13.81442,-4.81733 -4.53396,-4.88818 -4.53396,-14.52286 0,-9.8472 4.53396,-15.01875 4.60481,-5.17156 13.46021,-5.17156 15.30212,0 15.30212,17.07321 0,3.32963 -0.4959,5.2424 l -24.9368,0 q 0.42506,5.95083 3.04626,8.50118 2.6212,2.47951 8.28865,2.47951 2.83373,0 6.09251,-0.4959 3.32963,-0.4959 6.30505,-1.41686 l 0.35421,5.87998 q -2.97541,1.06265 -6.58841,1.62939 -3.613,0.63759 -7.01348,0.63759 z m -0.63759,-33.72135 q -4.67565,0 -7.08431,2.83372 -2.33783,2.76289 -2.76289,8.71372 l 18.27754,0 q -0.14168,-6.23421 -2.12529,-8.8554 -1.91277,-2.69204 -6.30505,-2.69204 z"
           style="font-style:normal;font-variant:normal;font-weight:bold;font-stretch:normal;font-size:70.84318542px;line-height:110.00000238%;font-family:'Encode Sans Normal';-inkscape-font-specification:'Encode Sans Normal';text-align:start;text-anchor:start;fill:#d40055;fill-opacity:1"
           id="path19135" />
        <path
           d="m 531.68641,418.12491 6.65926,0 0.4959,4.39228 0.42506,0 q 5.52577,-2.69204 9.28046,-3.89637 3.82553,-1.20434 7.01347,-1.20434 4.95903,0 7.58022,2.6212 2.69205,2.6212 2.69205,7.93444 l 0,28.40811 -7.8636,0 0,-25.78692 q 0,-3.613 -1.41686,-5.17155 -1.34602,-1.55855 -4.25059,-1.55855 -2.47951,0 -5.80914,1.06265 -3.25879,0.9918 -6.87179,2.69204 l 0,28.76233 -7.93444,0 0,-38.25532 z"
           style="font-style:normal;font-variant:normal;font-weight:bold;font-stretch:normal;font-size:70.84318542px;line-height:110.00000238%;font-family:'Encode Sans Normal';-inkscape-font-specification:'Encode Sans Normal';text-align:start;text-anchor:start;fill:#d40055;fill-opacity:1"
           id="path19137" />
        <path
           d="m 506.1408,535.01616 q -7.86359,0 -11.90165,-4.67565 -4.03807,-4.7465 -4.03807,-14.66454 0,-5.10071 1.34603,-8.92625 1.41686,-3.82553 3.96721,-6.30504 2.6212,-2.55035 6.2342,-3.82553 3.61301,-1.27518 8.07613,-1.27518 2.26698,0 4.32143,0.21253 2.05445,0.21253 3.96722,0.42506 l 0,-18.91513 7.86359,0 0,57.24129 -6.94263,0 -0.63759,-4.67565 -0.42506,0 q -3.89637,5.38409 -11.83081,5.38409 z m 2.05445,-6.09252 q 2.05446,0 3.82554,-0.56674 1.84192,-0.56675 3.18794,-1.6294 1.34602,-1.06264 2.12529,-2.6212 0.77928,-1.55855 0.77928,-3.613 l 0,-18.56091 q -1.84192,-0.35422 -3.96722,-0.56675 -2.12529,-0.21253 -4.53396,-0.21253 -5.87999,0 -8.64287,3.18795 -2.76289,3.1171 -2.76289,10.839 0,7.43854 2.33783,10.62648 2.40867,3.1171 7.65106,3.1171 z"
           style="font-style:normal;font-variant:normal;font-weight:500;font-stretch:normal;font-size:70.84318542px;line-height:110.00000238%;font-family:'Encode Sans Normal';-inkscape-font-specification:'Encode Sans Normal';text-align:start;text-anchor:start;fill:#d40055;fill-opacity:1"
           id="path19139" />
        <path
           d="m 552.48221,534.94531 q -9.20962,0 -13.81443,-4.81733 -4.53396,-4.88818 -4.53396,-14.52286 0,-9.8472 4.53396,-15.01875 4.60481,-5.17156 13.46021,-5.17156 15.30213,0 15.30213,17.07321 0,3.32963 -0.4959,5.2424 l -24.93681,0 q 0.42506,5.95083 3.04626,8.50118 2.6212,2.47951 8.28865,2.47951 2.83373,0 6.09252,-0.4959 3.32963,-0.4959 6.30504,-1.41686 l 0.35422,5.87998 q -2.97542,1.06265 -6.58842,1.62939 -3.613,0.63759 -7.01347,0.63759 z m -0.63759,-33.72135 q -4.67565,0 -7.08432,2.83372 -2.33783,2.76289 -2.76289,8.71372 l 18.27755,0 q -0.14169,-6.23421 -2.1253,-8.8554 -1.91277,-2.69204 -6.30504,-2.69204 z"
           style="font-style:normal;font-variant:normal;font-weight:500;font-stretch:normal;font-size:70.84318542px;line-height:110.00000238%;font-family:'Encode Sans Normal';-inkscape-font-specification:'Encode Sans Normal';text-align:start;text-anchor:start;fill:#d40055;fill-opacity:1"
           id="path19141" />
        <path
           d="m 579.73137,502.85335 -8.21781,0 0,-6.80095 8.28866,0 0,-1.84192 q 0,-5.02987 0.92096,-8.28865 0.92096,-3.32963 3.1171,-5.31324 2.26698,-1.98361 5.95083,-2.83373 3.75469,-0.92096 9.3513,-1.13349 l 0.42506,5.87999 q -3.54216,0.21252 -5.87999,0.77927 -2.26698,0.4959 -3.613,1.62939 -1.34602,1.13349 -1.91277,3.04626 -0.4959,1.91277 -0.4959,4.95902 l 0,3.1171 10.13058,0 0,6.80095 -10.13058,0 0,31.45437 -7.93444,0 0,-31.45437 z"
           style="font-style:normal;font-variant:normal;font-weight:500;font-stretch:normal;font-size:70.84318542px;line-height:110.00000238%;font-family:'Encode Sans Normal';-inkscape-font-specification:'Encode Sans Normal';text-align:start;text-anchor:start;fill:#d40055;fill-opacity:1"
           id="path19143" />
        <path
           d="m 619.58952,534.94531 q -9.20961,0 -13.81442,-4.81733 -4.53396,-4.88818 -4.53396,-14.52286 0,-9.8472 4.53396,-15.01875 4.60481,-5.17156 13.4602,-5.17156 15.30213,0 15.30213,17.07321 0,3.32963 -0.4959,5.2424 l -24.9368,0 q 0.42506,5.95083 3.04626,8.50118 2.62119,2.47951 8.28865,2.47951 2.83373,0 6.09251,-0.4959 3.32963,-0.4959 6.30505,-1.41686 l 0.35421,5.87998 q -2.97541,1.06265 -6.58841,1.62939 -3.61301,0.63759 -7.01348,0.63759 z m -0.63759,-33.72135 q -4.67565,0 -7.08432,2.83372 -2.33782,2.76289 -2.76288,8.71372 l 18.27754,0 q -0.14169,-6.23421 -2.12529,-8.8554 -1.91277,-2.69204 -6.30505,-2.69204 z"
           style="font-style:normal;font-variant:normal;font-weight:500;font-stretch:normal;font-size:70.84318542px;line-height:110.00000238%;font-family:'Encode Sans Normal';-inkscape-font-specification:'Encode Sans Normal';text-align:start;text-anchor:start;fill:#d40055;fill-opacity:1"
           id="path19145" />
        <path
           d="m 642.65561,496.0524 6.65926,0 0.49591,4.39228 0.42505,0 q 5.52577,-2.69204 9.28046,-3.89637 3.82553,-1.20434 7.01348,-1.20434 4.95902,0 7.58022,2.6212 2.69204,2.6212 2.69204,7.93444 l 0,28.40811 -7.86359,0 0,-25.78692 q 0,-3.613 -1.41687,-5.17155 -1.34602,-1.55855 -4.25059,-1.55855 -2.47951,0 -5.80914,1.06265 -3.25879,0.9918 -6.87179,2.69204 l 0,28.76233 -7.93444,0 0,-38.25532 z"
           style="font-style:normal;font-variant:normal;font-weight:500;font-stretch:normal;font-size:70.84318542px;line-height:110.00000238%;font-family:'Encode Sans Normal';-inkscape-font-specification:'Encode Sans Normal';text-align:start;text-anchor:start;fill:#d40055;fill-opacity:1"
           id="path19147" />
        <path
           d="m 698.345,535.087 q -2.69204,0 -6.02167,-0.42506 -3.32963,-0.35422 -7.58022,-1.27518 l 0,-6.02167 q 3.68384,0.85012 6.94263,1.41687 3.32963,0.4959 6.30504,0.4959 7.93444,0 7.93444,-5.38408 0,-2.83373 -2.05445,-4.03807 -1.98361,-1.27517 -5.45493,-1.84192 -2.26698,-0.35421 -4.60481,-0.85012 -2.33782,-0.4959 -4.32143,-1.62939 -1.91277,-1.20433 -3.18794,-3.32963 -1.20434,-2.1253 -1.20434,-5.66746 0,-5.31323 3.96722,-8.28865 3.96722,-3.04625 10.90985,-3.04625 1.27518,0 2.47951,0.0708 1.27518,0.0708 2.69204,0.28337 1.41687,0.14169 3.04626,0.42506 1.70024,0.21253 3.89638,0.63759 l -0.28338,6.2342 q -3.68384,-0.77928 -6.37588,-1.20433 -2.6212,-0.42506 -4.7465,-0.42506 -3.96721,0 -5.95082,1.34602 -1.98361,1.27517 -1.98361,3.75469 0,1.4877 0.63759,2.47951 0.63758,0.92096 1.77108,1.55855 1.13349,0.63759 2.69204,0.9918 1.62939,0.35422 3.54216,0.70843 2.62119,0.49591 4.81733,1.27518 2.26698,0.70843 3.89638,2.05445 1.62939,1.27518 2.55035,3.25879 0.92096,1.91277 0.92096,4.81734 0,5.52576 -3.96721,8.57202 -3.89638,3.04626 -11.26407,3.04626 z"
           style="font-style:normal;font-variant:normal;font-weight:500;font-stretch:normal;font-size:70.84318542px;line-height:110.00000238%;font-family:'Encode Sans Normal';-inkscape-font-specification:'Encode Sans Normal';text-align:start;text-anchor:start;fill:#d40055;fill-opacity:1"
           id="path19149" />
        <path
           d="m 729.46176,534.66194 q -5.10071,0 -7.79275,-2.6212 -2.69204,-2.69204 -2.69204,-7.72191 0,-5.59661 3.47132,-8.50118 3.47131,-2.90457 11.05153,-3.47131 l 9.06793,-0.70844 0,-2.05445 q 0,-2.33782 -0.42506,-3.82553 -0.35421,-1.55855 -1.41686,-2.47951 -0.9918,-0.99181 -2.76288,-1.34602 -1.77108,-0.42506 -4.46313,-0.42506 -2.47951,0 -5.45492,0.35421 -2.90457,0.28338 -6.09251,0.92097 l -0.56675,-5.80915 q 7.36769,-1.34602 13.60189,-1.34602 7.93444,0 11.68913,3.1171 3.82553,3.04626 3.82553,9.49299 l 0,26.07029 -6.51757,0 -0.77928,-4.74649 -0.4959,0 q -3.25879,2.47951 -6.58842,3.82553 -3.25878,1.27518 -6.65926,1.27518 z m 3.04626,-5.80914 q 2.40867,0 5.02987,-1.06265 2.62119,-1.06265 5.02986,-2.69204 l 0,-8.8554 -6.7301,0.63759 q -4.95902,0.4959 -6.94263,1.98361 -1.91277,1.41686 -1.91277,4.67565 0,5.31324 5.52577,5.31324 z"
           style="font-style:normal;font-variant:normal;font-weight:500;font-stretch:normal;font-size:70.84318542px;line-height:110.00000238%;font-family:'Encode Sans Normal';-inkscape-font-specification:'Encode Sans Normal';text-align:start;text-anchor:start;fill:#d40055;fill-opacity:1"
           id="path19151" />
        <path
           d="m 506.1408,612.94365 q -7.86359,0 -11.90165,-4.67565 -4.03807,-4.7465 -4.03807,-14.66454 0,-5.10071 1.34603,-8.92625 1.41686,-3.82553 3.96721,-6.30504 2.6212,-2.55035 6.2342,-3.82553 3.61301,-1.27518 8.07613,-1.27518 2.26698,0 4.32143,0.21253 2.05445,0.21253 3.96722,0.42506 l 0,-18.91513 7.86359,0 0,57.24129 -6.94263,0 -0.63759,-4.67565 -0.42506,0 q -3.89637,5.38409 -11.83081,5.38409 z m 2.05445,-6.09252 q 2.05446,0 3.82554,-0.56674 1.84192,-0.56675 3.18794,-1.6294 1.34602,-1.06264 2.12529,-2.62119 0.77928,-1.55855 0.77928,-3.61301 l 0,-18.56091 q -1.84192,-0.35422 -3.96722,-0.56675 -2.12529,-0.21253 -4.53396,-0.21253 -5.87999,0 -8.64287,3.18795 -2.76289,3.1171 -2.76289,10.839 0,7.43854 2.33783,10.62648 2.40867,3.1171 7.65106,3.1171 z"
           style="font-style:normal;font-variant:normal;font-weight:100;font-stretch:normal;font-size:70.84318542px;line-height:110.00000238%;font-family:'Encode Sans Normal';-inkscape-font-specification:'Encode Sans Normal';fill:#d40055;fill-opacity:1"
           id="path19153" />
        <path
           d="m 552.48221,612.8728 q -9.20962,0 -13.81443,-4.81733 -4.53396,-4.88818 -4.53396,-14.52286 0,-9.8472 4.53396,-15.01875 4.60481,-5.17155 13.46021,-5.17155 15.30213,0 15.30213,17.0732 0,3.32963 -0.4959,5.2424 l -24.93681,0 q 0.42506,5.95083 3.04626,8.50118 2.6212,2.47951 8.28865,2.47951 2.83373,0 6.09252,-0.4959 3.32963,-0.4959 6.30504,-1.41686 l 0.35422,5.87998 q -2.97542,1.06265 -6.58842,1.62939 -3.613,0.63759 -7.01347,0.63759 z m -0.63759,-33.72135 q -4.67565,0 -7.08432,2.83372 -2.33783,2.76289 -2.76289,8.71372 l 18.27755,0 q -0.14169,-6.2342 -2.1253,-8.8554 -1.91277,-2.69204 -6.30504,-2.69204 z"
           style="font-style:normal;font-variant:normal;font-weight:100;font-stretch:normal;font-size:70.84318542px;line-height:110.00000238%;font-family:'Encode Sans Normal';-inkscape-font-specification:'Encode Sans Normal';fill:#d40055;fill-opacity:1"
           id="path19155" />
        <path
           d="m 575.68999,554.99392 7.93443,0 0,57.24129 -7.93443,0 0,-57.24129 z"
           style="font-style:normal;font-variant:normal;font-weight:100;font-stretch:normal;font-size:70.84318542px;line-height:110.00000238%;font-family:'Encode Sans Normal';-inkscape-font-specification:'Encode Sans Normal';fill:#d40055;fill-opacity:1"
           id="path19157" />
        <path
           d="m 503.16539,690.87114 q -1.20434,0 -2.33783,-0.0708 -1.13349,-0.0708 -2.55035,-0.28337 -1.41687,-0.21253 -3.25879,-0.4959 -1.77108,-0.35422 -4.25059,-0.85012 l 0,-2.76288 q 6.80095,1.70023 12.32671,1.70023 5.10071,0 7.72191,-2.05445 2.69204,-2.05445 2.69204,-5.87999 0,-2.19613 -0.77927,-3.613 -0.77928,-1.41686 -2.1253,-2.26698 -1.27518,-0.92096 -3.04626,-1.41686 -1.70023,-0.56675 -3.54215,-0.99181 -2.26699,-0.42506 -4.53397,-0.9918 -2.26698,-0.63759 -4.1089,-1.70024 -1.77108,-1.13349 -2.90457,-2.97541 -1.13349,-1.91277 -1.13349,-5.02987 0,-4.81734 3.54215,-7.50938 3.61301,-2.69204 9.84721,-2.69204 1.06265,0 1.98361,0.0709 0.9918,0.0708 2.12529,0.21253 1.20434,0.14168 2.69204,0.42505 1.48771,0.28338 3.54216,0.70844 l -0.28337,2.83372 q -3.613,-0.77927 -5.80914,-1.13349 -2.19614,-0.35421 -4.17975,-0.35421 -5.10071,0 -7.79275,1.91276 -2.6212,1.91277 -2.6212,5.52577 0,2.1253 0.85012,3.54216 0.85012,1.34602 2.26698,2.19614 1.48771,0.85012 3.32963,1.34602 1.84193,0.4959 3.89638,0.92096 2.19614,0.4959 4.32143,1.13349 2.1253,0.63759 3.75469,1.84193 1.62939,1.20433 2.6212,3.1171 1.06265,1.91276 1.06265,4.88817 0,5.02987 -3.54216,7.8636 -3.54216,2.83373 -9.77636,2.83373 z"
           style="font-style:normal;font-variant:normal;font-weight:100;font-stretch:normal;font-size:70.84318542px;line-height:110.00000238%;font-family:'Encode Sans Wide';-inkscape-font-specification:'Encode Sans Wide Thin';fill:#d40055;fill-opacity:1"
           id="path19159" />
        <path
           d="m 541.05542,690.87114 q -8.21781,0 -12.61009,-5.10071 -4.39227,-5.17156 -4.39227,-14.73539 0,-9.56383 4.39227,-14.66454 4.39228,-5.17155 12.61009,-5.17155 8.21781,0 12.61009,5.17155 4.39228,5.10071 4.39228,14.66454 0,9.56383 -4.39228,14.73539 -4.39228,5.10071 -12.61009,5.10071 z m 0,-2.83373 q 13.88527,0 13.88527,-17.00237 0,-17.00236 -13.88527,-17.00236 -13.88526,0 -13.88526,17.00236 0,17.00237 13.88526,17.00237 z"
           style="font-style:normal;font-variant:normal;font-weight:100;font-stretch:normal;font-size:70.84318542px;line-height:110.00000238%;font-family:'Encode Sans Wide';-inkscape-font-specification:'Encode Sans Wide Thin';fill:#d40055;fill-opacity:1"
           id="path19161" />
        <path
           d="m 571.59436,654.74111 -9.13877,0 0,-2.83373 9.20962,0 0,-1.62939 q 0,-5.38408 0.56674,-8.71371 0.63759,-3.40047 2.40867,-5.31324 1.77108,-1.91277 4.88818,-2.69204 3.1171,-0.77928 8.21781,-0.99181 l 0.21253,2.33783 q -4.32143,0.35422 -6.94263,0.92096 -2.6212,0.56675 -4.10891,1.91277 -1.41686,1.34602 -1.91276,3.75469 -0.42506,2.40866 -0.42506,6.30504 l 0,4.1089 11.19322,0 0,2.83373 -11.19322,0 0,35.42159 -2.97542,0 0,-35.42159 z m 36.20087,35.9175 q -9.91804,0 -9.91804,-10.05974 l 0,-25.85776 -9.13877,0 0,-2.83373 9.13877,0 0.42506,-8.57202 2.47951,-0.42506 0,8.99708 12.75177,0 0,2.83373 -12.68093,0 0,25.29102 q 0,7.93444 7.43853,7.93444 2.69205,0 5.87999,-0.92097 l 0,2.76289 q -3.54216,0.85012 -6.37589,0.85012 z"
           style="font-style:normal;font-variant:normal;font-weight:100;font-stretch:normal;font-size:70.84318542px;line-height:110.00000238%;font-family:'Encode Sans Wide';-inkscape-font-specification:'Encode Sans Wide Thin';fill:#d40055;fill-opacity:1"
           id="path19163" />
        <path
           d="m 617.47751,652.47413 0,-0.56675 2.90457,0 8.57202,29.04571 1.55855,5.95083 0.35422,0 1.70024,-5.95083 9.13877,-29.04571 3.47131,0 9.63468,29.04571 1.84192,5.95083 0.28337,0 1.55855,-5.95083 8.00528,-29.04571 2.90457,0 0,0.56675 -10.62648,37.68857 -3.75468,0 -9.77636,-29.18739 -1.6294,-5.80914 -0.28337,0 -1.62939,5.80914 -9.20962,29.18739 -3.68384,0 -11.33491,-37.68857 z"
           style="font-style:normal;font-variant:normal;font-weight:100;font-stretch:normal;font-size:70.84318542px;line-height:110.00000238%;font-family:'Encode Sans Wide';-inkscape-font-specification:'Encode Sans Wide Thin';fill:#d40055;fill-opacity:1"
           id="path19165" />
        <path
           d="m 685.54231,690.51692 q -10.13058,0 -10.13058,-9.42214 0,-5.52577 3.47132,-8.28866 3.54216,-2.76288 11.47659,-3.54216 l 10.13058,-0.92096 0,-3.75469 q 0,-2.83372 -0.56675,-4.74649 -0.4959,-1.98361 -1.77108,-3.18794 -1.20433,-1.20434 -3.25878,-1.70024 -2.05446,-0.56674 -5.02987,-0.56674 -2.76288,0 -5.45492,0.28337 -2.69205,0.28337 -6.44673,0.9918 l -0.28338,-2.76288 q 3.89638,-0.70843 6.65926,-0.99181 2.76289,-0.28337 5.66746,-0.28337 7.01347,0 10.20142,2.97542 3.25878,2.97541 3.25878,9.42214 l 0,26.14113 -2.47951,0 -0.42506,-4.95902 -0.35421,0 q -8.64287,5.31324 -14.66454,5.31324 z m 0.35421,-2.76288 q 3.1171,0 6.7301,-1.27518 3.61301,-1.34602 7.8636,-4.03806 l 0,-11.68913 -9.49299,0.92096 q -3.54216,0.35422 -5.95083,0.99181 -2.40866,0.63759 -3.89637,1.77108 -1.48771,1.06264 -2.1253,2.69204 -0.63759,1.62939 -0.63759,3.89637 0,6.73011 7.50938,6.73011 z"
           style="font-style:normal;font-variant:normal;font-weight:100;font-stretch:normal;font-size:70.84318542px;line-height:110.00000238%;font-family:'Encode Sans Wide';-inkscape-font-specification:'Encode Sans Wide Thin';fill:#d40055;fill-opacity:1"
           id="path19167" />
        <path
           d="m 715.60418,651.90738 2.33782,0 0.42506,5.31324 0.28337,0 q 5.45493,-2.47951 8.99709,-4.03806 3.613,-1.55855 6.51757,-1.91276 l 0.99181,0 0,3.04625 -0.92097,0 q -3.25878,0.35422 -7.29684,2.05445 -3.96722,1.70024 -8.3595,3.75469 l 0,30.03751 -2.97541,0 0,-38.25532 z"
           style="font-style:normal;font-variant:normal;font-weight:100;font-stretch:normal;font-size:70.84318542px;line-height:110.00000238%;font-family:'Encode Sans Wide';-inkscape-font-specification:'Encode Sans Wide Thin';fill:#d40055;fill-opacity:1"
           id="path19169" />
        <path
           d="m 755.39701,690.80029 q -8.64287,0 -13.10599,-4.81733 -4.39227,-4.81734 -4.39227,-14.23948 0,-9.98889 4.32143,-15.23129 4.32143,-5.24239 12.53924,-5.24239 6.80095,0 10.34311,4.39227 3.613,4.32144 3.613,12.68093 0,1.48771 -0.0708,2.55036 -0.0708,1.06265 -0.21253,1.62939 l -27.558,0 q 0.42506,15.44382 14.94791,15.44382 2.6212,0 5.31324,-0.49591 2.69204,-0.4959 6.02167,-1.55855 l 0.35422,2.6212 q -2.76289,0.99181 -6.09252,1.62939 -3.32963,0.63759 -6.02167,0.63759 z m -0.70843,-36.76761 q -6.65926,0 -10.05973,4.03806 -3.40047,3.96722 -3.75469,11.90166 l 24.86596,0 q -0.14169,-4.25059 -0.85012,-7.29685 -0.63759,-3.04626 -1.98361,-4.95902 -1.27518,-1.91277 -3.32963,-2.76289 -2.05445,-0.92096 -4.88818,-0.92096 z"
           style="font-style:normal;font-variant:normal;font-weight:100;font-stretch:normal;font-size:70.84318542px;line-height:110.00000238%;font-family:'Encode Sans Wide';-inkscape-font-specification:'Encode Sans Wide Thin';fill:#d40055;fill-opacity:1"
           id="path19171" />
        <path
           d="m 493.60156,710.8489 2.97541,0 0,57.24129 -2.97541,0 0,-57.24129 z"
           style="font-style:normal;font-variant:normal;font-weight:100;font-stretch:normal;font-size:70.84318542px;line-height:110.00000238%;font-family:'Encode Sans Wide';-inkscape-font-specification:'Encode Sans Wide';fill:#d40055;fill-opacity:1"
           id="path19173" />
        <path
           d="m 510.99799,720.6961 q -2.26698,0 -2.26698,-2.26698 0,-2.33782 2.26698,-2.33782 2.40867,0 2.40867,2.33782 0,2.26698 -2.40867,2.26698 z m -1.41687,9.13877 2.97542,0 0,38.25532 -2.97542,0 0,-38.25532 z"
           style="font-style:normal;font-variant:normal;font-weight:100;font-stretch:normal;font-size:70.84318542px;line-height:110.00000238%;font-family:'Encode Sans Wide';-inkscape-font-specification:'Encode Sans Wide';fill:#d40055;fill-opacity:1"
           id="path19175" />
        <path
           d="m 539.66512,768.79863 q -3.47131,0 -7.36769,-0.35422 -3.89637,-0.28337 -7.08431,-0.77927 l 0,-56.81624 2.97541,0 0,23.59078 q 2.33782,-2.55035 5.59661,-3.89637 3.25879,-1.41687 7.50938,-1.41687 8.14696,0 12.4684,4.7465 4.32143,4.67565 4.32143,15.01875 0,5.17155 -1.34602,8.92624 -1.34602,3.75469 -3.82553,6.2342 -2.40867,2.40867 -5.80914,3.61301 -3.40047,1.13349 -7.43854,1.13349 z m 0,-2.76289 q 3.61301,0 6.44673,-0.92096 2.83373,-0.9918 4.7465,-3.04626 1.98361,-2.12529 3.04626,-5.31324 1.06264,-3.25878 1.06264,-7.79275 0,-9.13877 -3.47131,-13.03514 -3.40048,-3.96722 -10.41395,-3.96722 -2.40867,0 -4.74649,0.63759 -2.26699,0.63759 -4.10891,1.84192 -1.77108,1.13349 -2.90457,2.83373 -1.13349,1.62939 -1.13349,3.68384 l 0,24.29922 q 2.05445,0.28337 5.02986,0.56674 3.04626,0.21253 6.44673,0.21253 z"
           style="font-style:normal;font-variant:normal;font-weight:100;font-stretch:normal;font-size:70.84318542px;line-height:110.00000238%;font-family:'Encode Sans Wide';-inkscape-font-specification:'Encode Sans Wide';fill:#d40055;fill-opacity:1"
           id="path19177" />
        <path
           d="m 568.38318,729.83487 2.33783,0 0.42506,5.31324 0.28337,0 q 5.45493,-2.47951 8.99709,-4.03806 3.613,-1.55855 6.51757,-1.91276 l 0.9918,0 0,3.04625 -0.92096,0 q -3.25879,0.35422 -7.29685,2.05445 -3.96721,1.70024 -8.35949,3.75469 l 0,30.03751 -2.97542,0 0,-38.25532 z"
           style="font-style:normal;font-variant:normal;font-weight:100;font-stretch:normal;font-size:70.84318542px;line-height:110.00000238%;font-family:'Encode Sans Wide';-inkscape-font-specification:'Encode Sans Wide';fill:#d40055;fill-opacity:1"
           id="path19179" />
        <path
           d="m 608.17602,768.72778 q -8.64287,0 -13.10599,-4.81733 -4.39228,-4.81734 -4.39228,-14.23948 0,-9.98889 4.32144,-15.23129 4.32143,-5.24239 12.53924,-5.24239 6.80095,0 10.34311,4.39227 3.613,4.32144 3.613,12.68093 0,1.48771 -0.0709,2.55036 -0.0708,1.06265 -0.21252,1.62939 l -27.558,0 q 0.42506,15.44382 14.94791,15.44382 2.6212,0 5.31324,-0.49591 2.69204,-0.4959 6.02167,-1.55855 l 0.35421,2.6212 q -2.76288,0.99181 -6.09251,1.62939 -3.32963,0.63759 -6.02167,0.63759 z m -0.70843,-36.76761 q -6.65926,0 -10.05973,4.03806 -3.40048,3.96722 -3.75469,11.90166 l 24.86595,0 q -0.14168,-4.25059 -0.85011,-7.29685 -0.63759,-3.04626 -1.98361,-4.95902 -1.27518,-1.91277 -3.32963,-2.76289 -2.05446,-0.92096 -4.88818,-0.92096 z"
           style="font-style:normal;font-variant:normal;font-weight:100;font-stretch:normal;font-size:70.84318542px;line-height:110.00000238%;font-family:'Encode Sans Wide';-inkscape-font-specification:'Encode Sans Wide';fill:#d40055;fill-opacity:1"
           id="path19181" />
      </g>
    </g>
    <use
       x="0"
       y="0"
       xlink:href="#g19043"
       id="use19132"
       transform="translate(-4.8720477e-7,-744.09449)"
       width="100%"
       height="100%" />
  </g>
</svg>
